<svg width="889" height="318" viewBox="0 0 889 318" fill="none" xmlns="http://www.w3.org/2000/svg">
<path d="M0 132.321L121.647 54L213.707 163.855L93.7909 262.514L0 132.321ZM159.185 171.915L93.7909 99.6514L30.1277 143.518L86.0561 211.779L159.185 171.915Z" fill="#064F90"/>
<path d="M368.07 147.342C368.07 157.195 366.291 165.71 362.733 172.887C359.175 180.064 354.294 185.599 348.09 189.491C341.887 193.384 334.801 195.33 326.833 195.33C318.866 195.33 311.78 193.384 305.577 189.491C299.373 185.599 294.492 180.064 290.934 172.887C287.376 165.71 285.597 157.195 285.597 147.342C285.597 137.489 287.376 128.975 290.934 121.798C294.492 114.621 299.373 109.086 305.577 105.194C311.78 101.301 318.866 99.3548 326.833 99.3548C334.801 99.3548 341.887 101.301 348.09 105.194C354.294 109.086 359.175 114.621 362.733 121.798C366.291 128.975 368.07 137.489 368.07 147.342ZM357.122 147.342C357.122 139.253 355.769 132.426 353.062 126.861C350.386 121.296 346.752 117.084 342.16 114.225C337.599 111.367 332.49 109.938 326.833 109.938C321.177 109.938 316.053 111.367 311.461 114.225C306.899 117.084 303.265 121.296 300.559 126.861C297.883 132.426 296.545 139.253 296.545 147.342C296.545 155.432 297.883 162.259 300.559 167.824C303.265 173.389 306.899 177.601 311.461 180.459C316.053 183.318 321.177 184.747 326.833 184.747C332.49 184.747 337.599 183.318 342.16 180.459C346.752 177.601 350.386 173.389 353.062 167.824C355.769 162.259 357.122 155.432 357.122 147.342ZM385.632 220.327V123.987H396.032V135.117H397.31C398.1 133.901 399.195 132.35 400.594 130.465C402.023 128.549 404.061 126.846 406.706 125.356C409.382 123.835 413.001 123.075 417.563 123.075C423.463 123.075 428.663 124.55 433.163 127.5C437.664 130.449 441.177 134.631 443.701 140.044C446.225 145.457 447.487 151.843 447.487 159.202C447.487 166.623 446.225 173.054 443.701 178.498C441.177 183.911 437.679 188.108 433.209 191.088C428.739 194.038 423.584 195.512 417.745 195.512C413.245 195.512 409.641 194.767 406.934 193.277C404.228 191.757 402.145 190.039 400.685 188.123C399.225 186.176 398.1 184.565 397.31 183.287H396.397V220.327H385.632ZM396.215 159.02C396.215 164.311 396.99 168.979 398.541 173.024C400.092 177.038 402.358 180.186 405.338 182.466C408.318 184.717 411.967 185.842 416.286 185.842C420.786 185.842 424.542 184.656 427.553 182.284C430.594 179.881 432.875 176.658 434.395 172.613C435.946 168.538 436.721 164.007 436.721 159.02C436.721 154.093 435.961 149.654 434.441 145.7C432.951 141.716 430.685 138.569 427.644 136.258C424.633 133.916 420.847 132.745 416.286 132.745C411.907 132.745 408.227 133.855 405.247 136.075C402.266 138.265 400.016 141.336 398.496 145.29C396.975 149.213 396.215 153.789 396.215 159.02ZM494.38 123.987V133.11H458.07V123.987H494.38ZM468.652 107.201H479.418V173.982C479.418 177.023 479.859 179.304 480.74 180.824C481.653 182.314 482.808 183.318 484.207 183.835C485.637 184.321 487.142 184.565 488.723 184.565C489.909 184.565 490.882 184.504 491.643 184.382C492.403 184.23 493.011 184.109 493.467 184.017L495.657 193.688C494.927 193.962 493.908 194.235 492.601 194.509C491.293 194.813 489.636 194.965 487.628 194.965C484.587 194.965 481.607 194.311 478.688 193.004C475.799 191.696 473.396 189.704 471.481 187.028C469.595 184.352 468.652 180.976 468.652 176.901V107.201ZM510.573 194.053V123.987H521.338V194.053H510.573ZM516.047 112.31C513.949 112.31 512.139 111.595 510.619 110.166C509.129 108.736 508.384 107.018 508.384 105.011C508.384 103.004 509.129 101.286 510.619 99.8566C512.139 98.4273 513.949 97.7126 516.047 97.7126C518.145 97.7126 519.939 98.4273 521.43 99.8566C522.95 101.286 523.71 103.004 523.71 105.011C523.71 107.018 522.95 108.736 521.43 110.166C519.939 111.595 518.145 112.31 516.047 112.31ZM598.349 123.987L572.439 194.053H561.491L535.582 123.987H547.259L566.6 179.821H567.33L586.671 123.987H598.349ZM639.426 195.512C632.675 195.512 626.851 194.022 621.955 191.042C617.089 188.031 613.334 183.835 610.688 178.452C608.073 173.039 606.765 166.744 606.765 159.567C606.765 152.391 608.073 146.065 610.688 140.591C613.334 135.087 617.013 130.799 621.727 127.728C626.471 124.626 632.006 123.075 638.331 123.075C641.98 123.075 645.584 123.683 649.142 124.9C652.7 126.116 655.939 128.093 658.858 130.83C661.777 133.536 664.104 137.124 665.837 141.595C667.57 146.065 668.437 151.569 668.437 158.108V162.669H614.428V153.364H657.489C657.489 149.41 656.699 145.883 655.117 142.781C653.566 139.679 651.347 137.231 648.458 135.437C645.599 133.642 642.223 132.745 638.331 132.745C634.043 132.745 630.333 133.81 627.201 135.938C624.099 138.037 621.712 140.774 620.039 144.149C618.366 147.525 617.53 151.144 617.53 155.006V161.21C617.53 166.501 618.442 170.986 620.267 174.666C622.122 178.315 624.692 181.098 627.976 183.014C631.26 184.899 635.077 185.842 639.426 185.842C642.254 185.842 644.808 185.447 647.089 184.656C649.4 183.835 651.392 182.618 653.065 181.007C654.737 179.365 656.03 177.327 656.942 174.894L667.342 177.814C666.248 181.341 664.408 184.443 661.823 187.119C659.238 189.765 656.045 191.833 652.244 193.323C648.442 194.783 644.17 195.512 639.426 195.512ZM684.813 194.053V123.987H695.214V134.935H696.126C697.586 131.194 699.942 128.29 703.196 126.222C706.45 124.124 710.358 123.075 714.919 123.075C719.542 123.075 723.389 124.124 726.46 126.222C729.562 128.29 731.98 131.194 733.713 134.935H734.443C736.237 131.316 738.928 128.442 742.517 126.314C746.105 124.154 750.408 123.075 755.426 123.075C761.691 123.075 766.815 125.036 770.799 128.959C774.782 132.852 776.774 138.919 776.774 147.16V194.053H766.009V147.16C766.009 141.99 764.595 138.295 761.767 136.075C758.938 133.855 755.609 132.745 751.777 132.745C746.85 132.745 743.034 134.236 740.327 137.216C737.621 140.166 736.268 143.906 736.268 148.437V194.053H725.32V146.065C725.32 142.081 724.027 138.873 721.442 136.44C718.858 133.977 715.528 132.745 711.453 132.745C708.655 132.745 706.04 133.49 703.607 134.981C701.204 136.471 699.258 138.539 697.768 141.184C696.308 143.8 695.578 146.825 695.578 150.262V194.053H684.813Z" fill="#064F90"/>
</svg>
