<svg width="828" height="200" viewBox="0 0 828 200" fill="none" xmlns="http://www.w3.org/2000/svg">
<g filter="url(#filter0_di_20_177)">
<mask id="path-1-inside-1_20_177" fill="white">
<path fill-rule="evenodd" clip-rule="evenodd" d="M158.721 0C195.321 0 224.991 29.6702 224.991 66.2702C224.991 102.87 195.321 132.54 158.721 132.54H103.279C66.679 132.54 37.0088 102.87 37.0088 66.2702C37.0088 29.6702 66.679 0 103.279 0H158.721ZM157.967 15.5924C185.955 15.5924 208.644 38.2814 208.644 66.2696C208.644 94.2579 185.955 116.947 157.967 116.947H104.032C76.0433 116.947 53.3543 94.2579 53.3543 66.2696C53.3543 38.2814 76.0433 15.5924 104.032 15.5924H157.967ZM147.027 38.1159C144.156 38.1159 141.829 40.4429 141.829 43.3135V89.2262C141.829 92.0968 144.156 94.4239 147.027 94.4239H154.823V94.4245H183.41C186.28 94.4245 188.607 92.0974 188.607 89.2268V88.3605C188.607 85.4899 186.28 83.1629 183.41 83.1629H154.823V49.3776H183.41C186.28 49.3776 188.607 47.0505 188.607 44.1799V43.3137C188.607 40.4431 186.28 38.116 183.41 38.116L154.823 38.116V38.1159H147.027ZM183.41 61.5053C186.28 61.5053 188.607 63.8324 188.607 66.703V67.5693C188.607 70.4398 186.28 72.7669 183.41 72.7669H160.02V61.5053H183.41ZM73.3928 38.5488C70.5222 38.5488 68.1951 40.8759 68.1951 43.7465V46.3453C68.1951 49.2159 70.5222 51.543 73.3928 51.543H92.4524V88.7928C92.4524 91.6634 94.7795 93.9905 97.6501 93.9905H100.249C103.12 93.9905 105.447 91.6634 105.447 88.7928V51.543H122.771C125.641 51.543 127.968 49.2159 127.968 46.3453V43.7465C127.968 40.8759 125.641 38.5488 122.771 38.5488H73.3928Z"/>
</mask>
<path fill-rule="evenodd" clip-rule="evenodd" d="M158.721 0C195.321 0 224.991 29.6702 224.991 66.2702C224.991 102.87 195.321 132.54 158.721 132.54H103.279C66.679 132.54 37.0088 102.87 37.0088 66.2702C37.0088 29.6702 66.679 0 103.279 0H158.721ZM157.967 15.5924C185.955 15.5924 208.644 38.2814 208.644 66.2696C208.644 94.2579 185.955 116.947 157.967 116.947H104.032C76.0433 116.947 53.3543 94.2579 53.3543 66.2696C53.3543 38.2814 76.0433 15.5924 104.032 15.5924H157.967ZM147.027 38.1159C144.156 38.1159 141.829 40.4429 141.829 43.3135V89.2262C141.829 92.0968 144.156 94.4239 147.027 94.4239H154.823V94.4245H183.41C186.28 94.4245 188.607 92.0974 188.607 89.2268V88.3605C188.607 85.4899 186.28 83.1629 183.41 83.1629H154.823V49.3776H183.41C186.28 49.3776 188.607 47.0505 188.607 44.1799V43.3137C188.607 40.4431 186.28 38.116 183.41 38.116L154.823 38.116V38.1159H147.027ZM183.41 61.5053C186.28 61.5053 188.607 63.8324 188.607 66.703V67.5693C188.607 70.4398 186.28 72.7669 183.41 72.7669H160.02V61.5053H183.41ZM73.3928 38.5488C70.5222 38.5488 68.1951 40.8759 68.1951 43.7465V46.3453C68.1951 49.2159 70.5222 51.543 73.3928 51.543H92.4524V88.7928C92.4524 91.6634 94.7795 93.9905 97.6501 93.9905H100.249C103.12 93.9905 105.447 91.6634 105.447 88.7928V51.543H122.771C125.641 51.543 127.968 49.2159 127.968 46.3453V43.7465C127.968 40.8759 125.641 38.5488 122.771 38.5488H73.3928Z" fill="url(#paint0_linear_20_177)"/>
<path d="M154.823 94.4239H155.256V93.9907H154.823V94.4239ZM154.823 94.4245H154.39V94.8576H154.823V94.4245ZM154.823 83.1629H154.39V83.596H154.823V83.1629ZM154.823 49.3776V48.9445H154.39V49.3776H154.823ZM183.41 38.116L183.41 38.5491H183.41V38.116ZM154.823 38.116H154.39V38.5491L154.823 38.5491L154.823 38.116ZM154.823 38.1159H155.257V37.6827H154.823V38.1159ZM160.02 72.7669H159.587V73.2001H160.02V72.7669ZM160.02 61.5053V61.0722H159.587V61.5053H160.02ZM92.4524 51.543H92.8856V51.1098H92.4524V51.543ZM105.447 51.543V51.1098H105.013V51.543H105.447ZM225.424 66.2702C225.424 29.431 195.56 -0.433138 158.721 -0.433138V0.433138C195.081 0.433138 224.558 29.9094 224.558 66.2702H225.424ZM158.721 132.973C195.56 132.973 225.424 103.109 225.424 66.2702H224.558C224.558 102.631 195.081 132.107 158.721 132.107V132.973ZM103.279 132.973H158.721V132.107H103.279V132.973ZM36.5757 66.2702C36.5757 103.109 66.4398 132.973 103.279 132.973V132.107C66.9182 132.107 37.4419 102.631 37.4419 66.2702H36.5757ZM103.279 -0.433138C66.4397 -0.433138 36.5757 29.431 36.5757 66.2702H37.4419C37.4419 29.9094 66.9182 0.433138 103.279 0.433138V-0.433138ZM158.721 -0.433138H103.279V0.433138H158.721V-0.433138ZM209.077 66.2696C209.077 38.0422 186.194 15.1593 157.967 15.1593V16.0256C185.716 16.0256 208.211 38.5206 208.211 66.2696H209.077ZM157.967 117.38C186.194 117.38 209.077 94.4971 209.077 66.2696H208.211C208.211 94.0187 185.716 116.514 157.967 116.514V117.38ZM104.032 117.38H157.967V116.514H104.032V117.38ZM52.9212 66.2696C52.9212 94.4971 75.804 117.38 104.032 117.38V116.514C76.2825 116.514 53.7874 94.0187 53.7874 66.2696H52.9212ZM104.032 15.1593C75.804 15.1593 52.9212 38.0422 52.9212 66.2696H53.7874C53.7874 38.5206 76.2825 16.0256 104.032 16.0256V15.1593ZM157.967 15.1593H104.032V16.0256H157.967V15.1593ZM142.262 43.3135C142.262 40.6822 144.396 38.549 147.027 38.549V37.6827C143.917 37.6827 141.396 40.2037 141.396 43.3135H142.262ZM142.262 89.2262V43.3135H141.396V89.2262H142.262ZM147.027 93.9907C144.396 93.9907 142.262 91.8576 142.262 89.2262H141.396C141.396 92.336 143.917 94.857 147.027 94.857V93.9907ZM154.823 93.9907H147.027V94.857H154.823V93.9907ZM155.256 94.4245V94.4239H154.39V94.4245H155.256ZM183.41 93.9913H154.823V94.8576H183.41V93.9913ZM188.174 89.2268C188.174 91.8582 186.041 93.9913 183.41 93.9913V94.8576C186.52 94.8576 189.041 92.3366 189.041 89.2268H188.174ZM188.174 88.3605V89.2268H189.041V88.3605H188.174ZM183.41 83.596C186.041 83.596 188.174 85.7291 188.174 88.3605H189.041C189.041 85.2507 186.52 82.7297 183.41 82.7297V83.596ZM154.823 83.596H183.41V82.7297H154.823V83.596ZM154.39 49.3776V83.1629H155.257V49.3776H154.39ZM183.41 48.9445H154.823V49.8107H183.41V48.9445ZM188.174 44.1799C188.174 46.8113 186.041 48.9445 183.41 48.9445V49.8107C186.52 49.8107 189.041 47.2897 189.041 44.1799H188.174ZM188.174 43.3137V44.1799H189.041V43.3137H188.174ZM183.41 38.5491C186.041 38.5491 188.174 40.6823 188.174 43.3137H189.041C189.041 40.2039 186.52 37.6829 183.41 37.6829V38.5491ZM154.823 38.5491L183.41 38.5491L183.41 37.6829L154.823 37.6829L154.823 38.5491ZM154.39 38.1159V38.116H155.257V38.1159H154.39ZM147.027 38.549H154.823V37.6827H147.027V38.549ZM189.041 66.703C189.041 63.5932 186.52 61.0722 183.41 61.0722V61.9385C186.041 61.9385 188.174 64.0716 188.174 66.703H189.041ZM189.041 67.5693V66.703H188.174V67.5693H189.041ZM183.41 73.2001C186.52 73.2001 189.041 70.6791 189.041 67.5693H188.174C188.174 70.2006 186.041 72.3338 183.41 72.3338V73.2001ZM160.02 73.2001H183.41V72.3338H160.02V73.2001ZM159.587 61.5053V72.7669H160.453V61.5053H159.587ZM183.41 61.0722H160.02V61.9385H183.41V61.0722ZM68.6283 43.7465C68.6283 41.1151 70.7614 38.9819 73.3928 38.9819V38.1157C70.283 38.1157 67.762 40.6367 67.762 43.7465H68.6283ZM68.6283 46.3453V43.7465H67.762V46.3453H68.6283ZM73.3928 51.1098C70.7614 51.1098 68.6283 48.9767 68.6283 46.3453H67.762C67.762 49.4551 70.283 51.9761 73.3928 51.9761V51.1098ZM92.4524 51.1098H73.3928V51.9761H92.4524V51.1098ZM92.8856 88.7928V51.543H92.0193V88.7928H92.8856ZM97.6501 93.5573C95.0187 93.5573 92.8856 91.4242 92.8856 88.7928H92.0193C92.0193 91.9026 94.5403 94.4236 97.6501 94.4236V93.5573ZM100.249 93.5573H97.6501V94.4236H100.249V93.5573ZM105.013 88.7928C105.013 91.4242 102.88 93.5573 100.249 93.5573V94.4236C103.359 94.4236 105.88 91.9026 105.88 88.7928H105.013ZM105.013 51.543V88.7928H105.88V51.543H105.013ZM122.771 51.1098H105.447V51.9761H122.771V51.1098ZM127.535 46.3453C127.535 48.9767 125.402 51.1098 122.771 51.1098V51.9761C125.88 51.9761 128.401 49.4551 128.401 46.3453H127.535ZM127.535 43.7465V46.3453H128.401V43.7465H127.535ZM122.771 38.9819C125.402 38.9819 127.535 41.1151 127.535 43.7465H128.401C128.401 40.6367 125.88 38.1157 122.771 38.1157V38.9819ZM73.3928 38.9819H122.771V38.1157H73.3928V38.9819Z" fill="#02191C" mask="url(#path-1-inside-1_20_177)"/>
</g>
<path d="M8.39364 189.721C8.39364 191.353 9.4595 192.453 11.1249 192.453C12.7903 192.453 13.8562 191.353 13.8562 189.721V172.634H19.0189C20.5844 172.634 21.8501 171.835 21.8501 170.336C21.8501 168.837 20.5844 168.038 19.0189 168.038H3.23088C1.6654 168.038 0.399697 168.837 0.399697 170.336C0.399697 171.835 1.6654 172.634 3.23088 172.634H8.39364V189.721ZM34.7487 184.225C36.3808 184.225 36.8804 183.792 36.8804 182.127C36.8804 178.13 33.6828 174.166 28.087 174.166C22.3247 174.166 18.894 177.964 18.894 183.626C18.894 187.856 21.4587 192.453 28.2536 192.453C31.1847 192.453 35.8811 191.087 35.8811 188.156C35.8811 187.256 35.0484 186.257 33.8827 186.257C31.9175 186.257 31.9175 188.655 28.2536 188.655C25.4224 188.655 23.757 186.79 23.757 184.225H34.7487ZM23.757 181.428C24.2899 179.063 25.7555 177.564 28.187 177.564C30.352 177.564 32.0174 179.196 32.2839 181.428H23.757ZM39.0889 183.659C39.0889 188.755 41.92 192.453 47.9155 192.453C52.9117 192.453 55.3099 189.521 55.3099 187.39C55.3099 186.424 54.5105 185.524 53.2781 185.524C50.7134 185.524 51.4462 188.655 48.0487 188.655C45.3841 188.655 43.9518 186.69 43.9518 183.659C43.9518 179.263 46.1835 177.964 48.082 177.964C51.5794 177.964 50.7467 180.828 53.045 180.828C54.2773 180.828 55.3099 180.129 55.3099 178.73C55.3099 176.465 52.2789 174.166 48.2153 174.166C42.2531 174.166 39.0889 178.063 39.0889 183.659ZM57.9116 190.021C57.9116 191.32 58.4445 192.453 60.3431 192.453C62.2416 192.453 62.7746 191.32 62.7746 190.021V181.994C62.7746 179.562 64.773 178.163 66.4718 178.163C68.5702 178.163 69.5361 179.562 69.5361 181.527V190.021C69.5361 191.32 70.069 192.453 71.9676 192.453C73.8661 192.453 74.3991 191.32 74.3991 190.021V180.562C74.3991 175.632 71.2015 174.166 68.2704 174.166C65.5058 174.166 63.8071 175.465 62.8412 176.731H62.7746V170.036C62.7746 168.437 61.8086 167.605 60.3431 167.605C58.8775 167.605 57.9116 168.437 57.9116 170.036V190.021ZM89.1876 188.822C89.1876 191.253 90.4533 192.02 92.3852 192.02H105.475C107.074 192.02 108.24 191.553 108.24 189.821C108.24 188.089 107.074 187.623 105.475 187.623H94.6501V181.827H103.91C105.342 181.827 106.475 181.428 106.475 179.729C106.475 178.03 105.342 177.63 103.91 177.63H94.6501V172.434H105.209C106.808 172.434 107.973 171.968 107.973 170.236C107.973 168.504 106.808 168.038 105.209 168.038H92.3852C90.4533 168.038 89.1876 168.804 89.1876 171.235V188.822ZM117.319 186.39L120.117 190.854C120.749 191.853 121.349 192.453 122.348 192.453C123.914 192.453 124.813 191.353 124.813 190.188C124.813 189.488 124.613 189.088 124.347 188.722L120.583 183.126L124.113 177.897C124.413 177.464 124.613 176.964 124.613 176.265C124.613 175.166 123.547 174.166 122.415 174.166C121.649 174.166 120.916 174.366 120.183 175.599L117.552 179.895L114.821 175.399C114.254 174.466 113.621 174.166 112.855 174.166C111.09 174.166 110.257 175.565 110.257 176.598C110.257 177.064 110.49 177.497 110.757 177.864L114.254 183.126L110.524 188.622C110.091 189.255 109.858 189.755 109.858 190.188C109.858 191.52 111.057 192.453 112.222 192.453C113.122 192.453 113.788 191.986 114.121 191.487L117.319 186.39ZM126.36 183.659C126.36 188.755 129.191 192.453 135.187 192.453C140.183 192.453 142.581 189.521 142.581 187.39C142.581 186.424 141.782 185.524 140.549 185.524C137.984 185.524 138.717 188.655 135.32 188.655C132.655 188.655 131.223 186.69 131.223 183.659C131.223 179.263 133.455 177.964 135.353 177.964C138.85 177.964 138.018 180.828 140.316 180.828C141.548 180.828 142.581 180.129 142.581 178.73C142.581 176.465 139.55 174.166 135.486 174.166C129.524 174.166 126.36 178.063 126.36 183.659ZM160.305 184.225C161.937 184.225 162.436 183.792 162.436 182.127C162.436 178.13 159.239 174.166 153.643 174.166C147.881 174.166 144.45 177.964 144.45 183.626C144.45 187.856 147.015 192.453 153.809 192.453C156.741 192.453 161.437 191.087 161.437 188.156C161.437 187.256 160.604 186.257 159.439 186.257C157.473 186.257 157.473 188.655 153.809 188.655C150.978 188.655 149.313 186.79 149.313 184.225H160.305ZM149.313 181.428C149.846 179.063 151.311 177.564 153.743 177.564C155.908 177.564 157.573 179.196 157.84 181.428H149.313ZM165.844 190.021C165.844 191.62 166.81 192.453 168.275 192.453C169.741 192.453 170.707 191.62 170.707 190.021V170.036C170.707 168.437 169.741 167.605 168.275 167.605C166.81 167.605 165.844 168.437 165.844 170.036V190.021ZM175.114 190.021C175.114 191.62 176.08 192.453 177.546 192.453C179.011 192.453 179.977 191.62 179.977 190.021V170.036C179.977 168.437 179.011 167.605 177.546 167.605C176.08 167.605 175.114 168.437 175.114 170.036V190.021ZM199.24 184.225C200.872 184.225 201.372 183.792 201.372 182.127C201.372 178.13 198.174 174.166 192.578 174.166C186.816 174.166 183.385 177.964 183.385 183.626C183.385 187.856 185.95 192.453 192.745 192.453C195.676 192.453 200.372 191.087 200.372 188.156C200.372 187.256 199.54 186.257 198.374 186.257C196.409 186.257 196.409 188.655 192.745 188.655C189.914 188.655 188.248 186.79 188.248 184.225H199.24ZM188.248 181.428C188.781 179.063 190.247 177.564 192.678 177.564C194.843 177.564 196.509 179.196 196.775 181.428H188.248ZM204.513 190.021C204.513 191.32 205.046 192.453 206.944 192.453C208.843 192.453 209.376 191.32 209.376 190.021V181.994C209.376 179.562 211.374 178.163 213.073 178.163C215.171 178.163 216.137 179.562 216.137 181.527V190.021C216.137 191.32 216.67 192.453 218.569 192.453C220.467 192.453 221 191.32 221 190.021V180.562C221 175.632 217.803 174.166 214.872 174.166C212.107 174.166 210.342 175.432 208.976 177.231H208.909V176.598C208.909 175.132 208.243 174.166 206.711 174.166C205.179 174.166 204.513 175.132 204.513 176.598V190.021ZM223.942 183.659C223.942 188.755 226.773 192.453 232.769 192.453C237.765 192.453 240.163 189.521 240.163 187.39C240.163 186.424 239.364 185.524 238.131 185.524C235.567 185.524 236.3 188.655 232.902 188.655C230.237 188.655 228.805 186.69 228.805 183.659C228.805 179.263 231.037 177.964 232.935 177.964C236.433 177.964 235.6 180.828 237.898 180.828C239.131 180.828 240.163 180.129 240.163 178.73C240.163 176.465 237.132 174.166 233.069 174.166C227.107 174.166 223.942 178.063 223.942 183.659ZM257.887 184.225C259.519 184.225 260.019 183.792 260.019 182.127C260.019 178.13 256.821 174.166 251.225 174.166C245.463 174.166 242.032 177.964 242.032 183.626C242.032 187.856 244.597 192.453 251.392 192.453C254.323 192.453 259.019 191.087 259.019 188.156C259.019 187.256 258.187 186.257 257.021 186.257C255.056 186.257 255.056 188.655 251.392 188.655C248.561 188.655 246.895 186.79 246.895 184.225H257.887ZM246.895 181.428C247.428 179.063 248.894 177.564 251.325 177.564C253.49 177.564 255.156 179.196 255.422 181.428H246.895Z" fill="url(#paint1_linear_20_177)"/>
<path d="M384.531 63.82C384.531 66.2515 385.797 67.0176 387.729 67.0176H399.12C400.686 67.0176 401.952 66.2182 401.952 64.7193C401.952 63.2205 400.686 62.4211 399.12 62.4211H389.994V45.334C389.994 43.7019 388.928 42.6027 387.263 42.6027C385.597 42.6027 384.531 43.7019 384.531 45.334V63.82ZM419.416 59.2235C421.048 59.2235 421.548 58.7905 421.548 57.1251C421.548 53.1281 418.35 49.1644 412.754 49.1644C406.992 49.1644 403.561 52.9616 403.561 58.6239C403.561 62.8541 406.126 67.4506 412.921 67.4506C415.852 67.4506 420.548 66.085 420.548 63.1538C420.548 62.2545 419.716 61.2553 418.55 61.2553C416.585 61.2553 416.585 63.6535 412.921 63.6535C410.09 63.6535 408.424 61.7882 408.424 59.2235H419.416ZM408.424 56.4256C408.957 54.0607 410.423 52.5619 412.854 52.5619C415.019 52.5619 416.685 54.194 416.951 56.4256H408.424ZM440.843 54.1607C440.843 50.6633 437.612 49.1644 432.949 49.1644C427.953 49.1644 425.222 51.6292 425.222 53.5611C425.222 54.5604 426.054 55.4264 427.287 55.4264C429.219 55.4264 429.319 52.7617 432.916 52.7617C434.548 52.7617 435.98 53.3613 435.98 54.7602C435.98 56.1591 435.048 56.4256 433.882 56.5588L430.917 56.8919C427.187 57.3249 424.122 58.4574 424.122 62.4877C424.122 65.552 426.854 67.4506 429.618 67.4506C432.183 67.4506 434.381 66.7178 436.28 64.6194C436.347 66.1183 437.046 67.4506 439.144 67.4506C440.31 67.4506 441.343 66.6845 441.343 65.5853C441.343 64.8192 440.843 64.3529 440.843 62.3211V54.1607ZM435.98 60.7223C435.98 62.521 434.348 64.253 431.683 64.253C430.018 64.253 428.985 63.3537 428.985 62.2545C428.985 60.789 430.085 60.1561 432.116 59.8563L433.882 59.5899C434.448 59.49 435.447 59.3234 435.98 58.8238V60.7223ZM445.317 65.0191C445.317 66.3181 445.85 67.4506 447.749 67.4506C449.647 67.4506 450.18 66.3181 450.18 65.0191V59.3567C450.18 55.3264 451.246 53.9608 453.211 53.9608H454.077C455.276 53.9608 456.476 53.328 456.476 51.5293C456.476 50.1637 455.343 49.1644 453.811 49.1644C451.446 49.1644 450.347 51.2629 449.781 53.2946H449.714V51.4294C449.714 49.9638 448.748 49.1644 447.516 49.1644C446.283 49.1644 445.317 49.9638 445.317 51.4294V65.0191ZM458.615 65.0191C458.615 66.3181 459.148 67.4506 461.046 67.4506C462.945 67.4506 463.478 66.3181 463.478 65.0191V56.9918C463.478 54.5604 465.476 53.1614 467.175 53.1614C469.273 53.1614 470.239 54.5604 470.239 56.5255V65.0191C470.239 66.3181 470.772 67.4506 472.671 67.4506C474.569 67.4506 475.102 66.3181 475.102 65.0191V55.5596C475.102 50.63 471.905 49.1644 468.974 49.1644C466.209 49.1644 464.444 50.4302 463.078 52.2288H463.012V51.5959C463.012 50.1304 462.345 49.1644 460.813 49.1644C459.281 49.1644 458.615 50.1304 458.615 51.5959V65.0191ZM489.158 65.0191C489.158 66.3181 489.691 67.4506 491.59 67.4506C493.488 67.4506 494.021 66.3181 494.021 65.0191V56.9918C494.021 54.5604 496.02 53.1614 497.718 53.1614C499.817 53.1614 500.783 54.5604 500.783 56.5255V65.0191C500.783 66.3181 501.316 67.4506 503.214 67.4506C505.113 67.4506 505.646 66.3181 505.646 65.0191V55.5596C505.646 50.63 502.448 49.1644 499.517 49.1644C496.752 49.1644 495.054 50.4635 494.088 51.7292H494.021V45.0342C494.021 43.4355 493.055 42.6027 491.59 42.6027C490.124 42.6027 489.158 43.4355 489.158 45.0342V65.0191ZM513.65 58.2909C513.65 55.1266 514.949 52.7617 517.781 52.7617C520.612 52.7617 521.911 55.1266 521.911 58.2909C521.911 61.2553 520.678 63.8533 517.781 63.8533C514.883 63.8533 513.65 61.2553 513.65 58.2909ZM508.787 58.2909C508.787 63.1538 511.152 67.4506 517.781 67.4506C524.409 67.4506 526.774 63.1538 526.774 58.2909C526.774 53.1614 523.643 49.1644 517.781 49.1644C511.918 49.1644 508.787 53.1614 508.787 58.2909ZM532.118 64.8192C532.817 67.1175 533.35 67.4506 535.282 67.4506C537.314 67.4506 537.814 66.851 538.313 64.9192L540.711 55.3597H540.778L543.176 64.9192C543.676 66.851 544.176 67.4506 546.207 67.4506C548.139 67.4506 548.672 67.1175 549.372 64.8192L552.936 53.228C553.102 52.6951 553.269 52.1622 553.269 51.4294C553.269 50.1637 552.136 49.1644 550.904 49.1644C549.105 49.1644 548.805 50.1304 548.506 51.5293L546.107 62.1879H546.041L543.942 52.4953C543.509 50.5634 543.043 49.0978 540.745 49.1644C538.48 49.0978 538.08 50.5967 537.68 52.4953L535.615 62.1879H535.549L532.984 51.5293C532.651 50.1304 532.384 49.1644 530.586 49.1644C529.353 49.1644 528.221 50.1637 528.221 51.4294C528.221 52.1622 528.387 52.6951 528.554 53.228L532.118 64.8192ZM567.091 63.1205C567.091 65.985 568.557 67.4506 572.087 67.4506C574.419 67.4506 575.618 66.6845 575.618 65.2856C575.618 64.253 574.985 63.6535 573.919 63.6535H573.22C572.354 63.6535 571.954 63.2538 571.954 62.521V52.795H573.419C574.852 52.795 575.618 52.362 575.618 51.1962C575.618 50.0305 574.852 49.5974 573.419 49.5974H571.954V46.633C571.954 45.0342 570.988 44.2015 569.522 44.2015C568.057 44.2015 567.091 45.0342 567.091 46.633V49.5974H566.258C564.893 49.5974 564.326 50.1304 564.326 51.1962C564.326 52.2621 564.893 52.795 566.258 52.795H567.091V63.1205ZM582.283 58.2909C582.283 55.1266 583.582 52.7617 586.414 52.7617C589.245 52.7617 590.544 55.1266 590.544 58.2909C590.544 61.2553 589.311 63.8533 586.414 63.8533C583.516 63.8533 582.283 61.2553 582.283 58.2909ZM577.42 58.2909C577.42 63.1538 579.785 67.4506 586.414 67.4506C593.042 67.4506 595.407 63.1538 595.407 58.2909C595.407 53.1614 592.276 49.1644 586.414 49.1644C580.551 49.1644 577.42 53.1614 577.42 58.2909ZM625.216 45.0342C625.216 43.4355 624.25 42.6027 622.785 42.6027C621.319 42.6027 620.353 43.4355 620.353 45.0342V51.6292H620.287C619.321 50.0638 617.655 49.1644 615.49 49.1644C610.361 49.1644 607.996 53.5278 607.996 58.1909C607.996 64.4862 611.56 67.4506 615.624 67.4506C617.989 67.4506 619.954 66.4513 620.753 64.3862H620.82V65.1523C620.82 66.6512 621.586 67.4506 623.018 67.4506C624.517 67.4506 625.216 66.6512 625.216 65.1523V45.0342ZM612.859 58.3575C612.859 56.0925 613.625 52.9616 616.723 52.9616C619.687 52.9283 620.62 55.8594 620.62 58.3575C620.62 61.122 619.554 63.6535 616.723 63.6535C614.125 63.5868 612.859 61.222 612.859 58.3575ZM644.213 59.2235C645.845 59.2235 646.345 58.7905 646.345 57.1251C646.345 53.1281 643.147 49.1644 637.551 49.1644C631.789 49.1644 628.358 52.9616 628.358 58.6239C628.358 62.8541 630.923 67.4506 637.718 67.4506C640.649 67.4506 645.345 66.085 645.345 63.1538C645.345 62.2545 644.513 61.2553 643.347 61.2553C641.382 61.2553 641.382 63.6535 637.718 63.6535C634.887 63.6535 633.221 61.7882 633.221 59.2235H644.213ZM633.221 56.4256C633.754 54.0607 635.22 52.5619 637.651 52.5619C639.816 52.5619 641.482 54.194 641.748 56.4256H633.221ZM649.752 65.0191C649.752 66.6179 650.718 67.4506 652.184 67.4506C653.649 67.4506 654.615 66.6179 654.615 65.0191V45.0342C654.615 43.4355 653.649 42.6027 652.184 42.6027C650.718 42.6027 649.752 43.4355 649.752 45.0342V65.0191ZM659.023 65.0191C659.023 66.3181 659.556 67.4506 661.454 67.4506C663.353 67.4506 663.886 66.3181 663.886 65.0191V51.5959C663.886 50.2969 663.353 49.1644 661.454 49.1644C659.556 49.1644 659.023 50.2969 659.023 51.5959V65.0191ZM658.923 45.0009C658.923 46.3999 660.055 47.5323 661.454 47.5323C662.853 47.5323 663.985 46.3999 663.985 45.0009C663.985 43.602 662.853 42.4695 661.454 42.4695C660.055 42.4695 658.923 43.602 658.923 45.0009ZM671.224 65.7186C671.69 67.0176 671.99 67.4506 674.422 67.4506C676.853 67.4506 677.153 67.0176 677.619 65.7186L682.216 52.9283C682.349 52.5286 682.515 51.9956 682.515 51.6959C682.515 49.9638 681.316 49.1644 680.151 49.1644C678.319 49.1644 677.852 50.6966 677.719 51.1962L674.455 62.1879H674.388L671.124 51.1962C670.991 50.6966 670.525 49.1644 668.693 49.1644C667.527 49.1644 666.328 49.9638 666.328 51.6959C666.328 51.9956 666.494 52.5286 666.627 52.9283L671.224 65.7186ZM699.802 59.2235C701.434 59.2235 701.934 58.7905 701.934 57.1251C701.934 53.1281 698.736 49.1644 693.141 49.1644C687.378 49.1644 683.948 52.9616 683.948 58.6239C683.948 62.8541 686.512 67.4506 693.307 67.4506C696.238 67.4506 700.935 66.085 700.935 63.1538C700.935 62.2545 700.102 61.2553 698.936 61.2553C696.971 61.2553 696.971 63.6535 693.307 63.6535C690.476 63.6535 688.811 61.7882 688.811 59.2235H699.802ZM688.811 56.4256C689.344 54.0607 690.809 52.5619 693.241 52.5619C695.406 52.5619 697.071 54.194 697.338 56.4256H688.811ZM705.342 65.0191C705.342 66.3181 705.875 67.4506 707.773 67.4506C709.672 67.4506 710.205 66.3181 710.205 65.0191V59.3567C710.205 55.3264 711.27 53.9608 713.236 53.9608H714.102C715.301 53.9608 716.5 53.328 716.5 51.5293C716.5 50.1637 715.367 49.1644 713.835 49.1644C711.47 49.1644 710.371 51.2629 709.805 53.2946H709.738V51.4294C709.738 49.9638 708.772 49.1644 707.54 49.1644C706.308 49.1644 705.342 49.9638 705.342 51.4294V65.0191ZM383.466 93.7269C383.466 100.988 386.996 106.584 395.59 106.584C397.855 106.584 399.787 106.118 401.419 105.251L403.517 107.217C403.983 107.65 404.283 107.916 405.083 107.916C406.048 107.916 406.948 106.817 406.948 105.884C406.948 105.518 406.781 105.185 406.515 104.952L404.416 102.987C406.648 100.655 407.714 97.2576 407.714 93.7269C407.714 86.6989 403.45 81.4695 395.59 81.4695C387.729 81.4695 383.466 86.6989 383.466 93.7269ZM388.928 93.7269C388.928 89.1304 391.126 85.8662 395.59 85.8662C400.053 85.8662 402.251 89.1304 402.251 93.7269C402.251 96.0252 401.818 98.1236 400.819 99.6224L398.921 97.8904C398.454 97.4574 398.154 97.1909 397.355 97.1909C396.389 97.1909 395.49 98.2901 395.49 99.2227C395.49 99.5891 395.656 99.9222 395.923 100.155L397.788 101.887C397.155 102.087 396.422 102.187 395.59 102.187C390.46 102.187 388.928 98.3234 388.928 93.7269ZM411.724 97.0244C411.724 103.619 415.788 106.584 422.15 106.584C428.512 106.584 432.575 103.619 432.575 97.0244V84.334C432.575 82.7019 431.509 81.6027 429.844 81.6027C428.179 81.6027 427.113 82.7019 427.113 84.334V97.4574C427.113 100.722 425.281 102.187 422.15 102.187C419.019 102.187 417.187 100.722 417.187 97.4574V84.334C417.187 82.7019 416.121 81.6027 414.456 81.6027C412.79 81.6027 411.724 82.7019 411.724 84.334V97.0244ZM435.365 101.954C435.165 102.487 434.832 103.453 434.832 104.052C434.832 105.518 435.864 106.451 437.363 106.451C438.662 106.451 439.428 106.018 439.794 104.952L441.227 100.955H450.02L451.419 104.952C451.819 106.018 452.685 106.451 453.884 106.451C455.283 106.451 456.449 105.385 456.449 104.052C456.449 103.453 456.115 102.487 455.916 101.954L449.321 83.6012C448.721 81.9025 447.622 81.6027 446.389 81.6027H445.09C443.758 81.6027 442.892 82.0358 442.426 83.2682L435.365 101.954ZM448.821 97.1576H442.426L445.657 87.5316H445.723L448.821 97.1576ZM459.279 102.82C459.279 105.251 460.545 106.018 462.477 106.018H473.868C475.434 106.018 476.7 105.218 476.7 103.719C476.7 102.22 475.434 101.421 473.868 101.421H464.742V84.334C464.742 82.7019 463.676 81.6027 462.011 81.6027C460.345 81.6027 459.279 82.7019 459.279 84.334V102.82ZM479.642 103.719C479.642 105.351 480.707 106.451 482.373 106.451C484.038 106.451 485.104 105.351 485.104 103.719V84.334C485.104 82.7019 484.038 81.6027 482.373 81.6027C480.707 81.6027 479.642 82.7019 479.642 84.334V103.719ZM496.043 103.719C496.043 105.351 497.109 106.451 498.774 106.451C500.439 106.451 501.505 105.351 501.505 103.719V86.6323H506.668C508.233 86.6323 509.499 85.8329 509.499 84.334C509.499 82.8351 508.233 82.0358 506.668 82.0358H490.88C489.314 82.0358 488.049 82.8351 488.049 84.334C488.049 85.8329 489.314 86.6323 490.88 86.6323H496.043V103.719ZM517.359 103.719C517.359 105.351 518.425 106.451 520.09 106.451C521.756 106.451 522.821 105.351 522.821 103.719V96.658L529.516 85.5331C529.783 85.1001 529.983 84.6005 529.983 84.1009C529.983 82.2356 528.284 81.6027 527.285 81.6027C526.152 81.6027 525.553 82.0024 524.92 83.2015L520.19 91.9616L515.427 83.2015C514.861 82.1357 514.261 81.6027 512.962 81.6027C511.896 81.6027 510.198 82.2356 510.198 84.1009C510.198 84.6005 510.397 85.1001 510.664 85.5331L517.359 96.658V103.719ZM541.639 93.5937C541.639 96.8579 543.838 98.0236 546.669 98.7231L549.533 99.4226C551.265 99.8556 552.331 100.055 552.331 101.288C552.331 102.287 551.232 103.053 549.5 103.053C545.903 103.053 545.703 100.055 543.605 100.055C542.239 100.055 541.639 101.021 541.639 102.087C541.639 104.485 545.303 106.451 549.7 106.451C553.364 106.451 557.194 104.619 557.194 100.655C557.194 97.2576 553.897 96.0918 551.132 95.4589L549.1 94.9926C547.602 94.6595 546.502 94.3931 546.502 93.2606C546.502 92.228 547.602 91.7617 549.3 91.7617C552.365 91.7617 552.431 93.9934 554.33 93.9934C555.596 93.9934 556.362 92.9941 556.362 91.8616C556.362 89.63 552.631 88.1644 548.934 88.1644C545.57 88.1644 541.639 89.63 541.639 93.5937ZM564.426 97.2909C564.426 94.1266 565.725 91.7617 568.556 91.7617C571.387 91.7617 572.686 94.1266 572.686 97.2909C572.686 100.255 571.454 102.853 568.556 102.853C565.658 102.853 564.426 100.255 564.426 97.2909ZM559.563 97.2909C559.563 102.154 561.928 106.451 568.556 106.451C575.184 106.451 577.549 102.154 577.549 97.2909C577.549 92.1614 574.418 88.1644 568.556 88.1644C562.694 88.1644 559.563 92.1614 559.563 97.2909ZM582.222 104.019C582.222 105.618 583.188 106.451 584.654 106.451C586.119 106.451 587.085 105.618 587.085 104.019V91.795H588.584C590.017 91.795 590.783 91.362 590.783 90.1962C590.783 89.0305 590.017 88.5974 588.584 88.5974H587.085V86.499C587.085 85.8329 587.452 85.3666 588.151 85.3666C588.518 85.3666 588.851 85.4665 589.217 85.4665C590.083 85.4665 590.783 84.7004 590.783 83.8011C590.783 82.169 589.35 81.4695 587.585 81.4695C584.754 81.4695 582.222 83.1016 582.222 86.166V88.5974H581.123C579.758 88.5974 579.191 89.1304 579.191 90.1962C579.191 91.2621 579.758 91.795 581.123 91.795H582.222V104.019ZM594.284 102.121C594.284 104.985 595.749 106.451 599.28 106.451C601.612 106.451 602.811 105.684 602.811 104.286C602.811 103.253 602.178 102.653 601.112 102.653H600.413C599.547 102.653 599.147 102.254 599.147 101.521V91.795H600.612C602.045 91.795 602.811 91.362 602.811 90.1962C602.811 89.0305 602.045 88.5974 600.612 88.5974H599.147V85.633C599.147 84.0342 598.181 83.2015 596.715 83.2015C595.25 83.2015 594.284 84.0342 594.284 85.633V88.5974H593.451C592.086 88.5974 591.519 89.1304 591.519 90.1962C591.519 91.2621 592.086 91.795 593.451 91.795H594.284V102.121ZM607.744 103.819C608.444 106.118 608.977 106.451 610.909 106.451C612.94 106.451 613.44 105.851 613.94 103.919L616.338 94.3597H616.404L618.803 103.919C619.302 105.851 619.802 106.451 621.834 106.451C623.765 106.451 624.298 106.118 624.998 103.819L628.562 92.228C628.728 91.6951 628.895 91.1622 628.895 90.4294C628.895 89.1637 627.762 88.1644 626.53 88.1644C624.731 88.1644 624.432 89.1304 624.132 90.5293L621.734 101.188H621.667L619.569 91.4953C619.136 89.5634 618.669 88.0978 616.371 88.1644C614.106 88.0978 613.706 89.5967 613.307 91.4953L611.242 101.188H611.175L608.61 90.5293C608.277 89.1304 608.011 88.1644 606.212 88.1644C604.98 88.1644 603.847 89.1637 603.847 90.4294C603.847 91.1622 604.014 91.6951 604.18 92.228L607.744 103.819ZM647.425 93.1607C647.425 89.6633 644.194 88.1644 639.531 88.1644C634.535 88.1644 631.803 90.6292 631.803 92.5611C631.803 93.5604 632.636 94.4264 633.868 94.4264C635.8 94.4264 635.9 91.7617 639.498 91.7617C641.13 91.7617 642.562 92.3613 642.562 93.7602C642.562 95.1591 641.629 95.4256 640.463 95.5588L637.499 95.8919C633.769 96.3249 630.704 97.4574 630.704 101.488C630.704 104.552 633.435 106.451 636.2 106.451C638.765 106.451 640.963 105.718 642.862 103.619C642.928 105.118 643.628 106.451 645.726 106.451C646.892 106.451 647.924 105.684 647.924 104.585C647.924 103.819 647.425 103.353 647.425 101.321V93.1607ZM642.562 99.7223C642.562 101.521 640.93 103.253 638.265 103.253C636.6 103.253 635.567 102.354 635.567 101.255C635.567 99.789 636.666 99.1561 638.698 98.8563L640.463 98.5899C641.03 98.49 642.029 98.3234 642.562 97.8238V99.7223ZM651.899 104.019C651.899 105.318 652.432 106.451 654.331 106.451C656.229 106.451 656.762 105.318 656.762 104.019V98.3567C656.762 94.3264 657.828 92.9608 659.793 92.9608H660.659C661.858 92.9608 663.057 92.328 663.057 90.5293C663.057 89.1637 661.925 88.1644 660.393 88.1644C658.028 88.1644 656.929 90.2629 656.362 92.2946H656.296V90.4294C656.296 88.9638 655.33 88.1644 654.097 88.1644C652.865 88.1644 651.899 88.9638 651.899 90.4294V104.019ZM679.928 98.2235C681.56 98.2235 682.06 97.7905 682.06 96.1251C682.06 92.1281 678.862 88.1644 673.266 88.1644C667.504 88.1644 664.073 91.9616 664.073 97.6239C664.073 101.854 666.638 106.451 673.433 106.451C676.364 106.451 681.061 105.085 681.061 102.154C681.061 101.255 680.228 100.255 679.062 100.255C677.097 100.255 677.097 102.653 673.433 102.653C670.602 102.653 668.936 100.788 668.936 98.2235H679.928ZM668.936 95.4256C669.469 93.0607 670.935 91.5619 673.366 91.5619C675.531 91.5619 677.197 93.194 677.463 95.4256H668.936ZM696.115 103.719C696.115 105.351 697.181 106.451 698.846 106.451C700.511 106.451 701.577 105.351 701.577 103.719V96.225H709.838C711.27 96.225 712.402 95.8253 712.402 94.1266C712.402 92.4279 711.27 92.0282 709.838 92.0282H701.577V86.4324H711.337C712.935 86.4324 714.101 85.9661 714.101 84.2341C714.101 82.5021 712.935 82.0358 711.337 82.0358H699.312C697.38 82.0358 696.115 82.8018 696.115 85.2333V103.719ZM714.027 101.954C713.827 102.487 713.494 103.453 713.494 104.052C713.494 105.518 714.527 106.451 716.025 106.451C717.324 106.451 718.091 106.018 718.457 104.952L719.889 100.955H728.683L730.081 104.952C730.481 106.018 731.347 106.451 732.546 106.451C733.945 106.451 735.111 105.385 735.111 104.052C735.111 103.453 734.778 102.487 734.578 101.954L727.983 83.6012C727.384 81.9025 726.284 81.6027 725.052 81.6027H723.753C722.421 81.6027 721.555 82.0358 721.088 83.2682L714.027 101.954ZM727.483 97.1576H721.088L724.319 87.5316H724.386L727.483 97.1576ZM745.936 91.0956C744.204 90.6959 742.205 90.1629 742.205 88.4975C742.205 86.8321 743.604 85.6663 746.136 85.6663C751.232 85.6663 750.766 89.2303 753.297 89.2303C754.629 89.2303 755.795 88.4309 755.795 87.0653C755.795 83.8677 750.766 81.4695 746.502 81.4695C741.872 81.4695 736.943 83.468 736.943 88.7973C736.943 91.362 737.842 94.0933 742.805 95.359L748.967 96.9245C750.832 97.3908 751.298 98.4566 751.298 99.4226C751.298 101.021 749.733 102.587 746.902 102.587C741.373 102.587 742.139 98.2568 739.174 98.2568C737.842 98.2568 736.876 99.1894 736.876 100.522C736.876 103.12 739.974 106.584 746.902 106.584C753.497 106.584 756.761 103.353 756.761 99.0229C756.761 96.225 755.495 93.2606 750.499 92.1281L745.936 91.0956ZM766.606 103.719C766.606 105.351 767.672 106.451 769.337 106.451C771.003 106.451 772.068 105.351 772.068 103.719V86.6323H777.231C778.797 86.6323 780.062 85.8329 780.062 84.334C780.062 82.8351 778.797 82.0358 777.231 82.0358H761.443C759.878 82.0358 758.612 82.8351 758.612 84.334C758.612 85.8329 759.878 86.6323 761.443 86.6323H766.606V103.719ZM783.126 102.82C783.126 105.251 784.391 106.018 786.323 106.018H799.413C801.012 106.018 802.178 105.551 802.178 103.819C802.178 102.087 801.012 101.621 799.413 101.621H788.588V95.8253H797.848C799.28 95.8253 800.413 95.4256 800.413 93.7269C800.413 92.0282 799.28 91.6285 797.848 91.6285H788.588V86.4324H799.147C800.746 86.4324 801.911 85.9661 801.911 84.2341C801.911 82.5021 800.746 82.0358 799.147 82.0358H786.323C784.391 82.0358 783.126 82.8018 783.126 85.2333V102.82ZM805.794 103.719C805.794 105.351 806.86 106.451 808.525 106.451C810.191 106.451 811.257 105.351 811.257 103.719V96.6913H816.653C819.65 96.6913 820.416 98.39 820.416 102.587C820.416 103.553 820.65 106.451 823.647 106.451C824.913 106.451 826.212 105.585 826.212 104.319C826.212 103.186 825.479 102.154 825.479 99.3893C825.479 96.9578 824.98 94.926 822.182 94.5263V94.4597C824.78 93.8601 826.312 91.2954 826.312 88.6974C826.312 85.5997 824.58 82.0358 818.085 82.0358H808.992C807.06 82.0358 805.794 82.8018 805.794 85.2333V103.719ZM811.257 86.2326H816.886C819.284 86.2326 820.849 86.8987 820.849 89.4635C820.849 92.1614 818.784 92.6943 816.719 92.6943H811.257V86.2326Z" fill="url(#paint2_linear_20_177)"/>
<path d="M383.545 156.404C383.545 157.443 383.972 158.349 385.491 158.349C387.01 158.349 387.436 157.443 387.436 156.404V149.929C387.436 148.117 388.768 146.918 390.26 146.918C391.779 146.918 392.392 148.037 392.392 149.422V156.404C392.392 157.443 392.818 158.349 394.337 158.349C395.856 158.349 396.283 157.443 396.283 156.404V149.929C396.283 148.117 397.615 146.918 399.107 146.918C400.626 146.918 401.239 148.037 401.239 149.422V156.404C401.239 157.443 401.665 158.349 403.184 158.349C404.703 158.349 405.129 157.443 405.129 156.404V148.436C405.129 144.946 402.971 143.72 400.279 143.72C398.174 143.72 396.789 144.653 395.696 146.171C394.977 144.333 393.298 143.72 391.966 143.72C389.994 143.72 388.289 144.626 387.276 146.171H387.223V145.665C387.223 144.493 386.53 143.72 385.384 143.72C384.238 143.72 383.545 144.493 383.545 145.665V156.404ZM420.312 151.767C421.617 151.767 422.017 151.421 422.017 150.088C422.017 146.891 419.459 143.72 414.982 143.72C410.373 143.72 407.628 146.758 407.628 151.288C407.628 154.672 409.68 158.349 415.116 158.349C417.461 158.349 421.218 157.256 421.218 154.911C421.218 154.192 420.552 153.393 419.619 153.393C418.047 153.393 418.047 155.311 415.116 155.311C412.851 155.311 411.518 153.819 411.518 151.767H420.312ZM411.518 149.529C411.945 147.637 413.117 146.438 415.062 146.438C416.794 146.438 418.127 147.744 418.34 149.529H411.518ZM436.628 151.767C437.933 151.767 438.333 151.421 438.333 150.088C438.333 146.891 435.775 143.72 431.298 143.72C426.688 143.72 423.944 146.758 423.944 151.288C423.944 154.672 425.996 158.349 431.431 158.349C433.776 158.349 437.534 157.256 437.534 154.911C437.534 154.192 436.867 153.393 435.935 153.393C434.363 153.393 434.363 155.311 431.431 155.311C429.167 155.311 427.834 153.819 427.834 151.767H436.628ZM427.834 149.529C428.261 147.637 429.433 146.438 431.378 146.438C433.11 146.438 434.443 147.744 434.656 149.529H427.834ZM441.858 154.885C441.858 157.176 443.031 158.349 445.855 158.349C447.721 158.349 448.68 157.736 448.68 156.617C448.68 155.791 448.174 155.311 447.321 155.311H446.761C446.069 155.311 445.749 154.991 445.749 154.405V146.624H446.921C448.067 146.624 448.68 146.278 448.68 145.345C448.68 144.413 448.067 144.066 446.921 144.066H445.749V141.695C445.749 140.416 444.976 139.75 443.804 139.75C442.631 139.75 441.858 140.416 441.858 141.695V144.066H441.192C440.1 144.066 439.647 144.493 439.647 145.345C439.647 146.198 440.1 146.624 441.192 146.624H441.858V154.885ZM463.898 145.665C463.898 144.626 463.472 143.72 461.953 143.72C460.434 143.72 460.008 144.626 460.008 145.665V152.087C460.008 154.032 458.409 155.151 457.05 155.151C455.371 155.151 454.599 154.032 454.599 152.46V145.665C454.599 144.626 454.172 143.72 452.653 143.72C451.134 143.72 450.708 144.626 450.708 145.665V153.233C450.708 157.176 453.266 158.349 455.611 158.349C457.823 158.349 459.235 157.336 460.327 155.897H460.381V156.404C460.381 157.576 460.914 158.349 462.139 158.349C463.365 158.349 463.898 157.576 463.898 156.404V145.665ZM466.998 161.573C466.998 162.852 467.771 163.518 468.943 163.518C470.115 163.518 470.888 162.852 470.888 161.573V156.377H470.942C471.661 157.629 472.993 158.349 474.779 158.349C478.882 158.349 480.774 154.858 480.774 151.128C480.774 146.091 477.923 143.72 474.672 143.72C472.78 143.72 471.208 144.519 470.568 146.171H470.515V145.559C470.515 144.359 469.902 143.72 468.757 143.72C467.557 143.72 466.998 144.359 466.998 145.559V161.573ZM476.884 150.994C476.884 152.806 476.271 155.311 473.793 155.311C471.421 155.338 470.675 152.993 470.675 150.994C470.675 148.783 471.528 146.758 473.793 146.758C475.871 146.811 476.884 148.703 476.884 150.994ZM483.634 156.004C483.634 157.203 484.62 158.189 485.819 158.189C487.018 158.189 488.004 157.203 488.004 156.004C488.004 154.805 487.018 153.819 485.819 153.819C484.62 153.819 483.634 154.805 483.634 156.004ZM490.686 151.314C490.686 155.391 492.951 158.349 497.748 158.349C501.745 158.349 503.663 156.004 503.663 154.299C503.663 153.526 503.024 152.806 502.038 152.806C499.986 152.806 500.572 155.311 497.854 155.311C495.723 155.311 494.577 153.739 494.577 151.314C494.577 147.797 496.362 146.758 497.881 146.758C500.679 146.758 500.013 149.049 501.851 149.049C502.837 149.049 503.663 148.49 503.663 147.371C503.663 145.559 501.238 143.72 497.987 143.72C493.218 143.72 490.686 146.838 490.686 151.314ZM509.049 151.021C509.049 148.49 510.088 146.598 512.353 146.598C514.618 146.598 515.657 148.49 515.657 151.021C515.657 153.393 514.671 155.471 512.353 155.471C510.035 155.471 509.049 153.393 509.049 151.021ZM505.158 151.021C505.158 154.911 507.05 158.349 512.353 158.349C517.655 158.349 519.547 154.911 519.547 151.021C519.547 146.918 517.043 143.72 512.353 143.72C507.663 143.72 505.158 146.918 505.158 151.021ZM522.06 156.404C522.06 157.443 522.487 158.349 524.005 158.349C525.524 158.349 525.951 157.443 525.951 156.404V149.929C525.951 148.117 527.283 146.918 528.775 146.918C530.294 146.918 530.907 148.037 530.907 149.422V156.404C530.907 157.443 531.333 158.349 532.852 158.349C534.371 158.349 534.797 157.443 534.797 156.404V149.929C534.797 148.117 536.13 146.918 537.622 146.918C539.141 146.918 539.754 148.037 539.754 149.422V156.404C539.754 157.443 540.18 158.349 541.699 158.349C543.218 158.349 543.644 157.443 543.644 156.404V148.436C543.644 144.946 541.486 143.72 538.794 143.72C536.689 143.72 535.304 144.653 534.211 146.171C533.492 144.333 531.813 143.72 530.481 143.72C528.509 143.72 526.803 144.626 525.791 146.171H525.737V145.665C525.737 144.493 525.045 143.72 523.899 143.72C522.753 143.72 522.06 144.493 522.06 145.665V156.404ZM545.61 156.217C545.503 156.51 545.397 156.803 545.397 157.096C545.397 157.949 546.169 158.455 546.782 158.455C547.822 158.455 548.088 157.789 548.248 157.363L554.616 140.602C554.723 140.309 554.83 140.016 554.83 139.723C554.83 138.87 554.057 138.364 553.444 138.364C552.405 138.364 552.138 139.03 551.978 139.456L545.61 156.217ZM557.604 154.885C557.604 157.176 558.776 158.349 561.601 158.349C563.466 158.349 564.425 157.736 564.425 156.617C564.425 155.791 563.919 155.311 563.066 155.311H562.507C561.814 155.311 561.494 154.991 561.494 154.405V146.624H562.667C563.813 146.624 564.425 146.278 564.425 145.345C564.425 144.413 563.813 144.066 562.667 144.066H561.494V141.695C561.494 140.416 560.722 139.75 559.549 139.75C558.377 139.75 557.604 140.416 557.604 141.695V144.066H556.938C555.845 144.066 555.392 144.493 555.392 145.345C555.392 146.198 555.845 146.624 556.938 146.624H557.604V154.885ZM578.551 151.767C579.857 151.767 580.257 151.421 580.257 150.088C580.257 146.891 577.699 143.72 573.222 143.72C568.612 143.72 565.867 146.758 565.867 151.288C565.867 154.672 567.919 158.349 573.355 158.349C575.7 158.349 579.457 157.256 579.457 154.911C579.457 154.192 578.791 153.393 577.858 153.393C576.286 153.393 576.286 155.311 573.355 155.311C571.09 155.311 569.758 153.819 569.758 151.767H578.551ZM569.758 149.529C570.184 147.637 571.357 146.438 573.302 146.438C575.034 146.438 576.366 147.744 576.579 149.529H569.758ZM582.023 151.314C582.023 155.391 584.288 158.349 589.085 158.349C593.082 158.349 595 156.004 595 154.299C595 153.526 594.361 152.806 593.375 152.806C591.323 152.806 591.909 155.311 589.191 155.311C587.06 155.311 585.914 153.739 585.914 151.314C585.914 147.797 587.699 146.758 589.218 146.758C592.016 146.758 591.35 149.049 593.188 149.049C594.174 149.049 595 148.49 595 147.371C595 145.559 592.575 143.72 589.324 143.72C584.555 143.72 582.023 146.838 582.023 151.314ZM597.082 156.404C597.082 157.443 597.508 158.349 599.027 158.349C600.546 158.349 600.972 157.443 600.972 156.404V149.982C600.972 148.037 602.571 146.918 603.93 146.918C605.608 146.918 606.381 148.037 606.381 149.609V156.404C606.381 157.443 606.807 158.349 608.326 158.349C609.845 158.349 610.272 157.443 610.272 156.404V148.836C610.272 144.892 607.713 143.72 605.369 143.72C603.157 143.72 601.798 144.759 601.025 145.772H600.972V140.416C600.972 139.137 600.199 138.471 599.027 138.471C597.854 138.471 597.082 139.137 597.082 140.416V156.404ZM625.469 151.767C626.774 151.767 627.174 151.421 627.174 150.088C627.174 146.891 624.616 143.72 620.139 143.72C615.53 143.72 612.785 146.758 612.785 151.288C612.785 154.672 614.837 158.349 620.273 158.349C622.618 158.349 626.375 157.256 626.375 154.911C626.375 154.192 625.709 153.393 624.776 153.393C623.204 153.393 623.204 155.311 620.273 155.311C618.008 155.311 616.675 153.819 616.675 151.767H625.469ZM616.675 149.529C617.102 147.637 618.274 146.438 620.219 146.438C621.951 146.438 623.284 147.744 623.497 149.529H616.675ZM634.537 153.499L636.775 157.07C637.281 157.869 637.761 158.349 638.56 158.349C639.813 158.349 640.532 157.47 640.532 156.537C640.532 155.977 640.372 155.658 640.159 155.364L637.148 150.888L639.973 146.704C640.212 146.358 640.372 145.958 640.372 145.399C640.372 144.519 639.52 143.72 638.614 143.72C638.001 143.72 637.414 143.88 636.828 144.866L634.723 148.303L632.538 144.706C632.085 143.96 631.579 143.72 630.966 143.72C629.554 143.72 628.888 144.839 628.888 145.665C628.888 146.038 629.074 146.385 629.287 146.678L632.085 150.888L629.101 155.285C628.754 155.791 628.568 156.19 628.568 156.537C628.568 157.603 629.527 158.349 630.46 158.349C631.179 158.349 631.712 157.976 631.979 157.576L634.537 153.499ZM641.77 151.314C641.77 155.391 644.035 158.349 648.831 158.349C652.828 158.349 654.747 156.004 654.747 154.299C654.747 153.526 654.107 152.806 653.121 152.806C651.069 152.806 651.656 155.311 648.938 155.311C646.806 155.311 645.66 153.739 645.66 151.314C645.66 147.797 647.445 146.758 648.964 146.758C651.762 146.758 651.096 149.049 652.935 149.049C653.921 149.049 654.747 148.49 654.747 147.371C654.747 145.559 652.322 143.72 649.071 143.72C644.301 143.72 641.77 146.838 641.77 151.314ZM668.925 151.767C670.231 151.767 670.631 151.421 670.631 150.088C670.631 146.891 668.073 143.72 663.596 143.72C658.986 143.72 656.242 146.758 656.242 151.288C656.242 154.672 658.293 158.349 663.729 158.349C666.074 158.349 669.831 157.256 669.831 154.911C669.831 154.192 669.165 153.393 668.233 153.393C666.66 153.393 666.66 155.311 663.729 155.311C661.464 155.311 660.132 153.819 660.132 151.767H668.925ZM660.132 149.529C660.558 147.637 661.731 146.438 663.676 146.438C665.408 146.438 666.74 147.744 666.954 149.529H660.132ZM673.357 156.404C673.357 157.683 674.13 158.349 675.302 158.349C676.474 158.349 677.247 157.683 677.247 156.404V140.416C677.247 139.137 676.474 138.471 675.302 138.471C674.13 138.471 673.357 139.137 673.357 140.416V156.404ZM680.773 156.404C680.773 157.683 681.546 158.349 682.718 158.349C683.891 158.349 684.663 157.683 684.663 156.404V140.416C684.663 139.137 683.891 138.471 682.718 138.471C681.546 138.471 680.773 139.137 680.773 140.416V156.404ZM700.074 151.767C701.379 151.767 701.779 151.421 701.779 150.088C701.779 146.891 699.221 143.72 694.744 143.72C690.135 143.72 687.39 146.758 687.39 151.288C687.39 154.672 689.442 158.349 694.878 158.349C697.222 158.349 700.98 157.256 700.98 154.911C700.98 154.192 700.313 153.393 699.381 153.393C697.809 153.393 697.809 155.311 694.878 155.311C692.613 155.311 691.28 153.819 691.28 151.767H700.074ZM691.28 149.529C691.707 147.637 692.879 146.438 694.824 146.438C696.556 146.438 697.889 147.744 698.102 149.529H691.28ZM704.292 156.404C704.292 157.443 704.718 158.349 706.237 158.349C707.756 158.349 708.182 157.443 708.182 156.404V149.982C708.182 148.037 709.781 146.918 711.14 146.918C712.819 146.918 713.592 148.037 713.592 149.609V156.404C713.592 157.443 714.018 158.349 715.537 158.349C717.056 158.349 717.482 157.443 717.482 156.404V148.836C717.482 144.892 714.924 143.72 712.579 143.72C710.367 143.72 708.955 144.733 707.863 146.171H707.809V145.665C707.809 144.493 707.276 143.72 706.051 143.72C704.825 143.72 704.292 144.493 704.292 145.665V156.404ZM719.836 151.314C719.836 155.391 722.101 158.349 726.897 158.349C730.894 158.349 732.812 156.004 732.812 154.299C732.812 153.526 732.173 152.806 731.187 152.806C729.135 152.806 729.721 155.311 727.003 155.311C724.872 155.311 723.726 153.739 723.726 151.314C723.726 147.797 725.511 146.758 727.03 146.758C729.828 146.758 729.162 149.049 731 149.049C731.986 149.049 732.812 148.49 732.812 147.371C732.812 145.559 730.388 143.72 727.137 143.72C722.367 143.72 719.836 146.838 719.836 151.314ZM746.991 151.767C748.297 151.767 748.697 151.421 748.697 150.088C748.697 146.891 746.139 143.72 741.662 143.72C737.052 143.72 734.308 146.758 734.308 151.288C734.308 154.672 736.359 158.349 741.795 158.349C744.14 158.349 747.897 157.256 747.897 154.911C747.897 154.192 747.231 153.393 746.298 153.393C744.726 153.393 744.726 155.311 741.795 155.311C739.53 155.311 738.198 153.819 738.198 151.767H746.991ZM738.198 149.529C738.624 147.637 739.797 146.438 741.742 146.438C743.474 146.438 744.806 147.744 745.019 149.529H738.198Z" fill="url(#paint3_linear_20_177)"/>
<defs>
<filter id="filter0_di_20_177" x="31.2382" y="0" width="199.523" height="144.082" filterUnits="userSpaceOnUse" color-interpolation-filters="sRGB">
<feFlood flood-opacity="0" result="BackgroundImageFix"/>
<feColorMatrix in="SourceAlpha" type="matrix" values="0 0 0 0 0 0 0 0 0 0 0 0 0 0 0 0 0 0 127 0" result="hardAlpha"/>
<feOffset dy="5.77063"/>
<feGaussianBlur stdDeviation="2.88531"/>
<feComposite in2="hardAlpha" operator="out"/>
<feColorMatrix type="matrix" values="0 0 0 0 0.00392157 0 0 0 0 0.0745098 0 0 0 0 0.141176 0 0 0 0.25 0"/>
<feBlend mode="normal" in2="BackgroundImageFix" result="effect1_dropShadow_20_177"/>
<feBlend mode="normal" in="SourceGraphic" in2="effect1_dropShadow_20_177" result="shape"/>
<feColorMatrix in="SourceAlpha" type="matrix" values="0 0 0 0 0 0 0 0 0 0 0 0 0 0 0 0 0 0 127 0" result="hardAlpha"/>
<feOffset/>
<feGaussianBlur stdDeviation="4.33139"/>
<feComposite in2="hardAlpha" operator="arithmetic" k2="-1" k3="1"/>
<feColorMatrix type="matrix" values="0 0 0 0 0.0901961 0 0 0 0 0.564706 0 0 0 0 0.752941 0 0 0 1 0"/>
<feBlend mode="normal" in2="shape" result="effect2_innerShadow_20_177"/>
</filter>
<linearGradient id="paint0_linear_20_177" x1="104.578" y1="9.69326e-07" x2="163.052" y2="132.54" gradientUnits="userSpaceOnUse">
<stop stop-color="#01FEFE"/>
<stop offset="1" stop-color="#0C94AA"/>
</linearGradient>
<linearGradient id="paint1_linear_20_177" x1="131" y1="160.02" x2="131" y2="193.211" gradientUnits="userSpaceOnUse">
<stop stop-color="#2DA3AD"/>
<stop offset="1" stop-color="#268BA2"/>
</linearGradient>
<linearGradient id="paint2_linear_20_177" x1="605" y1="35.0176" x2="605" y2="101.401" gradientUnits="userSpaceOnUse">
<stop stop-color="#A6E5EB"/>
<stop offset="1" stop-color="#9CD0DC"/>
</linearGradient>
<linearGradient id="paint3_linear_20_177" x1="566" y1="133.002" x2="566" y2="159.385" gradientUnits="userSpaceOnUse">
<stop stop-color="#F2FEFF"/>
<stop offset="1" stop-color="#EDF9FC"/>
</linearGradient>
</defs>
</svg>
