<svg width="262" height="200" viewBox="0 0 262 200" fill="none" xmlns="http://www.w3.org/2000/svg">
<g filter="url(#filter0_di_20_178)">
<mask id="path-1-inside-1_20_178" fill="white">
<path fill-rule="evenodd" clip-rule="evenodd" d="M158.721 0C195.321 0 224.991 29.6702 224.991 66.2702C224.991 102.87 195.321 132.54 158.721 132.54H103.279C66.679 132.54 37.0088 102.87 37.0088 66.2702C37.0088 29.6702 66.679 0 103.279 0H158.721ZM157.967 15.5924C185.955 15.5924 208.644 38.2814 208.644 66.2696C208.644 94.2579 185.955 116.947 157.967 116.947H104.032C76.0433 116.947 53.3543 94.2579 53.3543 66.2696C53.3543 38.2814 76.0433 15.5924 104.032 15.5924H157.967ZM147.027 38.1159C144.156 38.1159 141.829 40.4429 141.829 43.3135V89.2262C141.829 92.0968 144.156 94.4239 147.027 94.4239H154.823V94.4245H183.41C186.28 94.4245 188.607 92.0974 188.607 89.2268V88.3605C188.607 85.4899 186.28 83.1629 183.41 83.1629H154.823V49.3776H183.41C186.28 49.3776 188.607 47.0505 188.607 44.1799V43.3137C188.607 40.4431 186.28 38.116 183.41 38.116L154.823 38.116V38.1159H147.027ZM183.41 61.5053C186.28 61.5053 188.607 63.8324 188.607 66.703V67.5693C188.607 70.4398 186.28 72.7669 183.41 72.7669H160.02V61.5053H183.41ZM73.3928 38.5488C70.5222 38.5488 68.1951 40.8759 68.1951 43.7465V46.3453C68.1951 49.2159 70.5222 51.543 73.3928 51.543H92.4524V88.7928C92.4524 91.6634 94.7795 93.9905 97.6501 93.9905H100.249C103.12 93.9905 105.447 91.6634 105.447 88.7928V51.543H122.771C125.641 51.543 127.968 49.2159 127.968 46.3453V43.7465C127.968 40.8759 125.641 38.5488 122.771 38.5488H73.3928Z"/>
</mask>
<path fill-rule="evenodd" clip-rule="evenodd" d="M158.721 0C195.321 0 224.991 29.6702 224.991 66.2702C224.991 102.87 195.321 132.54 158.721 132.54H103.279C66.679 132.54 37.0088 102.87 37.0088 66.2702C37.0088 29.6702 66.679 0 103.279 0H158.721ZM157.967 15.5924C185.955 15.5924 208.644 38.2814 208.644 66.2696C208.644 94.2579 185.955 116.947 157.967 116.947H104.032C76.0433 116.947 53.3543 94.2579 53.3543 66.2696C53.3543 38.2814 76.0433 15.5924 104.032 15.5924H157.967ZM147.027 38.1159C144.156 38.1159 141.829 40.4429 141.829 43.3135V89.2262C141.829 92.0968 144.156 94.4239 147.027 94.4239H154.823V94.4245H183.41C186.28 94.4245 188.607 92.0974 188.607 89.2268V88.3605C188.607 85.4899 186.28 83.1629 183.41 83.1629H154.823V49.3776H183.41C186.28 49.3776 188.607 47.0505 188.607 44.1799V43.3137C188.607 40.4431 186.28 38.116 183.41 38.116L154.823 38.116V38.1159H147.027ZM183.41 61.5053C186.28 61.5053 188.607 63.8324 188.607 66.703V67.5693C188.607 70.4398 186.28 72.7669 183.41 72.7669H160.02V61.5053H183.41ZM73.3928 38.5488C70.5222 38.5488 68.1951 40.8759 68.1951 43.7465V46.3453C68.1951 49.2159 70.5222 51.543 73.3928 51.543H92.4524V88.7928C92.4524 91.6634 94.7795 93.9905 97.6501 93.9905H100.249C103.12 93.9905 105.447 91.6634 105.447 88.7928V51.543H122.771C125.641 51.543 127.968 49.2159 127.968 46.3453V43.7465C127.968 40.8759 125.641 38.5488 122.771 38.5488H73.3928Z" fill="url(#paint0_linear_20_178)"/>
<path d="M154.823 94.4239H155.256V93.9907H154.823V94.4239ZM154.823 94.4245H154.39V94.8576H154.823V94.4245ZM154.823 83.1629H154.39V83.596H154.823V83.1629ZM154.823 49.3776V48.9445H154.39V49.3776H154.823ZM183.41 38.116L183.41 38.5491H183.41V38.116ZM154.823 38.116H154.39V38.5491L154.823 38.5491L154.823 38.116ZM154.823 38.1159H155.257V37.6827H154.823V38.1159ZM160.02 72.7669H159.587V73.2001H160.02V72.7669ZM160.02 61.5053V61.0722H159.587V61.5053H160.02ZM92.4524 51.543H92.8856V51.1098H92.4524V51.543ZM105.447 51.543V51.1098H105.013V51.543H105.447ZM225.424 66.2702C225.424 29.431 195.56 -0.433138 158.721 -0.433138V0.433138C195.081 0.433138 224.558 29.9094 224.558 66.2702H225.424ZM158.721 132.973C195.56 132.973 225.424 103.109 225.424 66.2702H224.558C224.558 102.631 195.081 132.107 158.721 132.107V132.973ZM103.279 132.973H158.721V132.107H103.279V132.973ZM36.5757 66.2702C36.5757 103.109 66.4398 132.973 103.279 132.973V132.107C66.9182 132.107 37.4419 102.631 37.4419 66.2702H36.5757ZM103.279 -0.433138C66.4397 -0.433138 36.5757 29.431 36.5757 66.2702H37.4419C37.4419 29.9094 66.9182 0.433138 103.279 0.433138V-0.433138ZM158.721 -0.433138H103.279V0.433138H158.721V-0.433138ZM209.077 66.2696C209.077 38.0422 186.194 15.1593 157.967 15.1593V16.0256C185.716 16.0256 208.211 38.5206 208.211 66.2696H209.077ZM157.967 117.38C186.194 117.38 209.077 94.4971 209.077 66.2696H208.211C208.211 94.0187 185.716 116.514 157.967 116.514V117.38ZM104.032 117.38H157.967V116.514H104.032V117.38ZM52.9212 66.2696C52.9212 94.4971 75.804 117.38 104.032 117.38V116.514C76.2825 116.514 53.7874 94.0187 53.7874 66.2696H52.9212ZM104.032 15.1593C75.804 15.1593 52.9212 38.0422 52.9212 66.2696H53.7874C53.7874 38.5206 76.2825 16.0256 104.032 16.0256V15.1593ZM157.967 15.1593H104.032V16.0256H157.967V15.1593ZM142.262 43.3135C142.262 40.6822 144.396 38.549 147.027 38.549V37.6827C143.917 37.6827 141.396 40.2037 141.396 43.3135H142.262ZM142.262 89.2262V43.3135H141.396V89.2262H142.262ZM147.027 93.9907C144.396 93.9907 142.262 91.8576 142.262 89.2262H141.396C141.396 92.336 143.917 94.857 147.027 94.857V93.9907ZM154.823 93.9907H147.027V94.857H154.823V93.9907ZM155.256 94.4245V94.4239H154.39V94.4245H155.256ZM183.41 93.9913H154.823V94.8576H183.41V93.9913ZM188.174 89.2268C188.174 91.8582 186.041 93.9913 183.41 93.9913V94.8576C186.52 94.8576 189.041 92.3366 189.041 89.2268H188.174ZM188.174 88.3605V89.2268H189.041V88.3605H188.174ZM183.41 83.596C186.041 83.596 188.174 85.7291 188.174 88.3605H189.041C189.041 85.2507 186.52 82.7297 183.41 82.7297V83.596ZM154.823 83.596H183.41V82.7297H154.823V83.596ZM154.39 49.3776V83.1629H155.257V49.3776H154.39ZM183.41 48.9445H154.823V49.8107H183.41V48.9445ZM188.174 44.1799C188.174 46.8113 186.041 48.9445 183.41 48.9445V49.8107C186.52 49.8107 189.041 47.2897 189.041 44.1799H188.174ZM188.174 43.3137V44.1799H189.041V43.3137H188.174ZM183.41 38.5491C186.041 38.5491 188.174 40.6823 188.174 43.3137H189.041C189.041 40.2039 186.52 37.6829 183.41 37.6829V38.5491ZM154.823 38.5491L183.41 38.5491L183.41 37.6829L154.823 37.6829L154.823 38.5491ZM154.39 38.1159V38.116H155.257V38.1159H154.39ZM147.027 38.549H154.823V37.6827H147.027V38.549ZM189.041 66.703C189.041 63.5932 186.52 61.0722 183.41 61.0722V61.9385C186.041 61.9385 188.174 64.0716 188.174 66.703H189.041ZM189.041 67.5693V66.703H188.174V67.5693H189.041ZM183.41 73.2001C186.52 73.2001 189.041 70.6791 189.041 67.5693H188.174C188.174 70.2006 186.041 72.3338 183.41 72.3338V73.2001ZM160.02 73.2001H183.41V72.3338H160.02V73.2001ZM159.587 61.5053V72.7669H160.453V61.5053H159.587ZM183.41 61.0722H160.02V61.9385H183.41V61.0722ZM68.6283 43.7465C68.6283 41.1151 70.7614 38.9819 73.3928 38.9819V38.1157C70.283 38.1157 67.762 40.6367 67.762 43.7465H68.6283ZM68.6283 46.3453V43.7465H67.762V46.3453H68.6283ZM73.3928 51.1098C70.7614 51.1098 68.6283 48.9767 68.6283 46.3453H67.762C67.762 49.4551 70.283 51.9761 73.3928 51.9761V51.1098ZM92.4524 51.1098H73.3928V51.9761H92.4524V51.1098ZM92.8856 88.7928V51.543H92.0193V88.7928H92.8856ZM97.6501 93.5573C95.0187 93.5573 92.8856 91.4242 92.8856 88.7928H92.0193C92.0193 91.9026 94.5403 94.4236 97.6501 94.4236V93.5573ZM100.249 93.5573H97.6501V94.4236H100.249V93.5573ZM105.013 88.7928C105.013 91.4242 102.88 93.5573 100.249 93.5573V94.4236C103.359 94.4236 105.88 91.9026 105.88 88.7928H105.013ZM105.013 51.543V88.7928H105.88V51.543H105.013ZM122.771 51.1098H105.447V51.9761H122.771V51.1098ZM127.535 46.3453C127.535 48.9767 125.402 51.1098 122.771 51.1098V51.9761C125.88 51.9761 128.401 49.4551 128.401 46.3453H127.535ZM127.535 43.7465V46.3453H128.401V43.7465H127.535ZM122.771 38.9819C125.402 38.9819 127.535 41.1151 127.535 43.7465H128.401C128.401 40.6367 125.88 38.1157 122.771 38.1157V38.9819ZM73.3928 38.9819H122.771V38.1157H73.3928V38.9819Z" fill="#02191C" mask="url(#path-1-inside-1_20_178)"/>
</g>
<path d="M8.39364 189.721C8.39364 191.353 9.4595 192.453 11.1249 192.453C12.7903 192.453 13.8562 191.353 13.8562 189.721V172.634H19.0189C20.5844 172.634 21.8501 171.835 21.8501 170.336C21.8501 168.837 20.5844 168.038 19.0189 168.038H3.23088C1.6654 168.038 0.399697 168.837 0.399697 170.336C0.399697 171.835 1.6654 172.634 3.23088 172.634H8.39364V189.721ZM34.7487 184.225C36.3808 184.225 36.8804 183.792 36.8804 182.127C36.8804 178.13 33.6828 174.166 28.087 174.166C22.3247 174.166 18.894 177.964 18.894 183.626C18.894 187.856 21.4587 192.453 28.2536 192.453C31.1847 192.453 35.8811 191.087 35.8811 188.156C35.8811 187.256 35.0484 186.257 33.8827 186.257C31.9175 186.257 31.9175 188.655 28.2536 188.655C25.4224 188.655 23.757 186.79 23.757 184.225H34.7487ZM23.757 181.428C24.2899 179.063 25.7555 177.564 28.187 177.564C30.352 177.564 32.0174 179.196 32.2839 181.428H23.757ZM39.0889 183.659C39.0889 188.755 41.92 192.453 47.9155 192.453C52.9117 192.453 55.3099 189.521 55.3099 187.39C55.3099 186.424 54.5105 185.524 53.2781 185.524C50.7134 185.524 51.4462 188.655 48.0487 188.655C45.3841 188.655 43.9518 186.69 43.9518 183.659C43.9518 179.263 46.1835 177.964 48.082 177.964C51.5794 177.964 50.7467 180.828 53.045 180.828C54.2773 180.828 55.3099 180.129 55.3099 178.73C55.3099 176.465 52.2789 174.166 48.2153 174.166C42.2531 174.166 39.0889 178.063 39.0889 183.659ZM57.9116 190.021C57.9116 191.32 58.4445 192.453 60.3431 192.453C62.2416 192.453 62.7746 191.32 62.7746 190.021V181.994C62.7746 179.562 64.773 178.163 66.4718 178.163C68.5702 178.163 69.5361 179.562 69.5361 181.527V190.021C69.5361 191.32 70.069 192.453 71.9676 192.453C73.8661 192.453 74.3991 191.32 74.3991 190.021V180.562C74.3991 175.632 71.2015 174.166 68.2704 174.166C65.5058 174.166 63.8071 175.465 62.8412 176.731H62.7746V170.036C62.7746 168.437 61.8086 167.605 60.3431 167.605C58.8775 167.605 57.9116 168.437 57.9116 170.036V190.021ZM89.1876 188.822C89.1876 191.253 90.4533 192.02 92.3852 192.02H105.475C107.074 192.02 108.24 191.553 108.24 189.821C108.24 188.089 107.074 187.623 105.475 187.623H94.6501V181.827H103.91C105.342 181.827 106.475 181.428 106.475 179.729C106.475 178.03 105.342 177.63 103.91 177.63H94.6501V172.434H105.209C106.808 172.434 107.973 171.968 107.973 170.236C107.973 168.504 106.808 168.038 105.209 168.038H92.3852C90.4533 168.038 89.1876 168.804 89.1876 171.235V188.822ZM117.319 186.39L120.117 190.854C120.749 191.853 121.349 192.453 122.348 192.453C123.914 192.453 124.813 191.353 124.813 190.188C124.813 189.488 124.613 189.088 124.347 188.722L120.583 183.126L124.113 177.897C124.413 177.464 124.613 176.964 124.613 176.265C124.613 175.166 123.547 174.166 122.415 174.166C121.649 174.166 120.916 174.366 120.183 175.599L117.552 179.895L114.821 175.399C114.254 174.466 113.621 174.166 112.855 174.166C111.09 174.166 110.257 175.565 110.257 176.598C110.257 177.064 110.49 177.497 110.757 177.864L114.254 183.126L110.524 188.622C110.091 189.255 109.858 189.755 109.858 190.188C109.858 191.52 111.057 192.453 112.222 192.453C113.122 192.453 113.788 191.986 114.121 191.487L117.319 186.39ZM126.36 183.659C126.36 188.755 129.191 192.453 135.187 192.453C140.183 192.453 142.581 189.521 142.581 187.39C142.581 186.424 141.782 185.524 140.549 185.524C137.984 185.524 138.717 188.655 135.32 188.655C132.655 188.655 131.223 186.69 131.223 183.659C131.223 179.263 133.455 177.964 135.353 177.964C138.85 177.964 138.018 180.828 140.316 180.828C141.548 180.828 142.581 180.129 142.581 178.73C142.581 176.465 139.55 174.166 135.486 174.166C129.524 174.166 126.36 178.063 126.36 183.659ZM160.305 184.225C161.937 184.225 162.436 183.792 162.436 182.127C162.436 178.13 159.239 174.166 153.643 174.166C147.881 174.166 144.45 177.964 144.45 183.626C144.45 187.856 147.015 192.453 153.809 192.453C156.741 192.453 161.437 191.087 161.437 188.156C161.437 187.256 160.604 186.257 159.439 186.257C157.473 186.257 157.473 188.655 153.809 188.655C150.978 188.655 149.313 186.79 149.313 184.225H160.305ZM149.313 181.428C149.846 179.063 151.311 177.564 153.743 177.564C155.908 177.564 157.573 179.196 157.84 181.428H149.313ZM165.844 190.021C165.844 191.62 166.81 192.453 168.275 192.453C169.741 192.453 170.707 191.62 170.707 190.021V170.036C170.707 168.437 169.741 167.605 168.275 167.605C166.81 167.605 165.844 168.437 165.844 170.036V190.021ZM175.114 190.021C175.114 191.62 176.08 192.453 177.546 192.453C179.011 192.453 179.977 191.62 179.977 190.021V170.036C179.977 168.437 179.011 167.605 177.546 167.605C176.08 167.605 175.114 168.437 175.114 170.036V190.021ZM199.24 184.225C200.872 184.225 201.372 183.792 201.372 182.127C201.372 178.13 198.174 174.166 192.578 174.166C186.816 174.166 183.385 177.964 183.385 183.626C183.385 187.856 185.95 192.453 192.745 192.453C195.676 192.453 200.372 191.087 200.372 188.156C200.372 187.256 199.54 186.257 198.374 186.257C196.409 186.257 196.409 188.655 192.745 188.655C189.914 188.655 188.248 186.79 188.248 184.225H199.24ZM188.248 181.428C188.781 179.063 190.247 177.564 192.678 177.564C194.843 177.564 196.509 179.196 196.775 181.428H188.248ZM204.513 190.021C204.513 191.32 205.046 192.453 206.944 192.453C208.843 192.453 209.376 191.32 209.376 190.021V181.994C209.376 179.562 211.374 178.163 213.073 178.163C215.171 178.163 216.137 179.562 216.137 181.527V190.021C216.137 191.32 216.67 192.453 218.569 192.453C220.467 192.453 221 191.32 221 190.021V180.562C221 175.632 217.803 174.166 214.872 174.166C212.107 174.166 210.342 175.432 208.976 177.231H208.909V176.598C208.909 175.132 208.243 174.166 206.711 174.166C205.179 174.166 204.513 175.132 204.513 176.598V190.021ZM223.942 183.659C223.942 188.755 226.773 192.453 232.769 192.453C237.765 192.453 240.163 189.521 240.163 187.39C240.163 186.424 239.364 185.524 238.131 185.524C235.567 185.524 236.3 188.655 232.902 188.655C230.237 188.655 228.805 186.69 228.805 183.659C228.805 179.263 231.037 177.964 232.935 177.964C236.433 177.964 235.6 180.828 237.898 180.828C239.131 180.828 240.163 180.129 240.163 178.73C240.163 176.465 237.132 174.166 233.069 174.166C227.107 174.166 223.942 178.063 223.942 183.659ZM257.887 184.225C259.519 184.225 260.019 183.792 260.019 182.127C260.019 178.13 256.821 174.166 251.225 174.166C245.463 174.166 242.032 177.964 242.032 183.626C242.032 187.856 244.597 192.453 251.392 192.453C254.323 192.453 259.019 191.087 259.019 188.156C259.019 187.256 258.187 186.257 257.021 186.257C255.056 186.257 255.056 188.655 251.392 188.655C248.561 188.655 246.895 186.79 246.895 184.225H257.887ZM246.895 181.428C247.428 179.063 248.894 177.564 251.325 177.564C253.49 177.564 255.156 179.196 255.422 181.428H246.895Z" fill="url(#paint1_linear_20_178)"/>
<defs>
<filter id="filter0_di_20_178" x="31.2382" y="0" width="199.523" height="144.082" filterUnits="userSpaceOnUse" color-interpolation-filters="sRGB">
<feFlood flood-opacity="0" result="BackgroundImageFix"/>
<feColorMatrix in="SourceAlpha" type="matrix" values="0 0 0 0 0 0 0 0 0 0 0 0 0 0 0 0 0 0 127 0" result="hardAlpha"/>
<feOffset dy="5.77063"/>
<feGaussianBlur stdDeviation="2.88531"/>
<feComposite in2="hardAlpha" operator="out"/>
<feColorMatrix type="matrix" values="0 0 0 0 0.00392157 0 0 0 0 0.0745098 0 0 0 0 0.141176 0 0 0 0.25 0"/>
<feBlend mode="normal" in2="BackgroundImageFix" result="effect1_dropShadow_20_178"/>
<feBlend mode="normal" in="SourceGraphic" in2="effect1_dropShadow_20_178" result="shape"/>
<feColorMatrix in="SourceAlpha" type="matrix" values="0 0 0 0 0 0 0 0 0 0 0 0 0 0 0 0 0 0 127 0" result="hardAlpha"/>
<feOffset/>
<feGaussianBlur stdDeviation="4.33139"/>
<feComposite in2="hardAlpha" operator="arithmetic" k2="-1" k3="1"/>
<feColorMatrix type="matrix" values="0 0 0 0 0.0901961 0 0 0 0 0.564706 0 0 0 0 0.752941 0 0 0 1 0"/>
<feBlend mode="normal" in2="shape" result="effect2_innerShadow_20_178"/>
</filter>
<linearGradient id="paint0_linear_20_178" x1="104.578" y1="9.69326e-07" x2="163.052" y2="132.54" gradientUnits="userSpaceOnUse">
<stop stop-color="#01FEFE"/>
<stop offset="1" stop-color="#0C94AA"/>
</linearGradient>
<linearGradient id="paint1_linear_20_178" x1="131" y1="160.02" x2="131" y2="193.211" gradientUnits="userSpaceOnUse">
<stop stop-color="#2DA3AD"/>
<stop offset="1" stop-color="#268BA2"/>
</linearGradient>
</defs>
</svg>
