<svg width="446" height="408" viewBox="0 0 446 408" fill="none" xmlns="http://www.w3.org/2000/svg">
<g filter="url(#filter0_di_21_437)">
<mask id="path-1-inside-1_21_437" fill="white">
<path fill-rule="evenodd" clip-rule="evenodd" d="M250.721 0C287.321 0 316.991 29.6702 316.991 66.2702C316.991 102.87 287.321 132.54 250.721 132.54H195.279C158.679 132.54 129.009 102.87 129.009 66.2702C129.009 29.6702 158.679 0 195.279 0H250.721ZM249.967 15.5924C277.955 15.5924 300.644 38.2814 300.644 66.2696C300.644 94.2579 277.955 116.947 249.967 116.947H196.032C168.043 116.947 145.354 94.2579 145.354 66.2696C145.354 38.2814 168.043 15.5924 196.032 15.5924H249.967ZM239.027 38.1159C236.156 38.1159 233.829 40.4429 233.829 43.3135V89.2262C233.829 92.0968 236.156 94.4239 239.027 94.4239H246.823V94.4245H275.41C278.28 94.4245 280.607 92.0974 280.607 89.2268V88.3605C280.607 85.4899 278.28 83.1629 275.41 83.1629H246.823V49.3776H275.41C278.28 49.3776 280.607 47.0505 280.607 44.1799V43.3137C280.607 40.4431 278.28 38.116 275.41 38.116L246.823 38.116V38.1159H239.027ZM275.41 61.5053C278.28 61.5053 280.607 63.8324 280.607 66.703V67.5693C280.607 70.4398 278.28 72.7669 275.41 72.7669H252.02V61.5053H275.41ZM165.393 38.5488C162.522 38.5488 160.195 40.8759 160.195 43.7465V46.3453C160.195 49.2159 162.522 51.543 165.393 51.543H184.452V88.7928C184.452 91.6634 186.78 93.9905 189.65 93.9905H192.249C195.12 93.9905 197.447 91.6634 197.447 88.7928V51.543H214.771C217.641 51.543 219.968 49.2159 219.968 46.3453V43.7465C219.968 40.8759 217.641 38.5488 214.771 38.5488H165.393Z"/>
</mask>
<path fill-rule="evenodd" clip-rule="evenodd" d="M250.721 0C287.321 0 316.991 29.6702 316.991 66.2702C316.991 102.87 287.321 132.54 250.721 132.54H195.279C158.679 132.54 129.009 102.87 129.009 66.2702C129.009 29.6702 158.679 0 195.279 0H250.721ZM249.967 15.5924C277.955 15.5924 300.644 38.2814 300.644 66.2696C300.644 94.2579 277.955 116.947 249.967 116.947H196.032C168.043 116.947 145.354 94.2579 145.354 66.2696C145.354 38.2814 168.043 15.5924 196.032 15.5924H249.967ZM239.027 38.1159C236.156 38.1159 233.829 40.4429 233.829 43.3135V89.2262C233.829 92.0968 236.156 94.4239 239.027 94.4239H246.823V94.4245H275.41C278.28 94.4245 280.607 92.0974 280.607 89.2268V88.3605C280.607 85.4899 278.28 83.1629 275.41 83.1629H246.823V49.3776H275.41C278.28 49.3776 280.607 47.0505 280.607 44.1799V43.3137C280.607 40.4431 278.28 38.116 275.41 38.116L246.823 38.116V38.1159H239.027ZM275.41 61.5053C278.28 61.5053 280.607 63.8324 280.607 66.703V67.5693C280.607 70.4398 278.28 72.7669 275.41 72.7669H252.02V61.5053H275.41ZM165.393 38.5488C162.522 38.5488 160.195 40.8759 160.195 43.7465V46.3453C160.195 49.2159 162.522 51.543 165.393 51.543H184.452V88.7928C184.452 91.6634 186.78 93.9905 189.65 93.9905H192.249C195.12 93.9905 197.447 91.6634 197.447 88.7928V51.543H214.771C217.641 51.543 219.968 49.2159 219.968 46.3453V43.7465C219.968 40.8759 217.641 38.5488 214.771 38.5488H165.393Z" fill="url(#paint0_linear_21_437)"/>
<path d="M246.823 94.4239H247.256V93.9907H246.823V94.4239ZM246.823 94.4245H246.39V94.8576H246.823V94.4245ZM246.823 83.1629H246.39V83.596H246.823V83.1629ZM246.823 49.3776V48.9445H246.39V49.3776H246.823ZM275.41 38.116L275.41 38.5491H275.41V38.116ZM246.823 38.116H246.39V38.5491L246.823 38.5491L246.823 38.116ZM246.823 38.1159H247.257V37.6827H246.823V38.1159ZM252.02 72.7669H251.587V73.2001H252.02V72.7669ZM252.02 61.5053V61.0722H251.587V61.5053H252.02ZM184.452 51.543H184.886V51.1098H184.452V51.543ZM197.447 51.543V51.1098H197.013V51.543H197.447ZM317.424 66.2702C317.424 29.431 287.56 -0.433138 250.721 -0.433138V0.433138C287.081 0.433138 316.558 29.9094 316.558 66.2702H317.424ZM250.721 132.973C287.56 132.973 317.424 103.109 317.424 66.2702H316.558C316.558 102.631 287.081 132.107 250.721 132.107V132.973ZM195.279 132.973H250.721V132.107H195.279V132.973ZM128.576 66.2702C128.576 103.109 158.44 132.973 195.279 132.973V132.107C158.918 132.107 129.442 102.631 129.442 66.2702H128.576ZM195.279 -0.433138C158.44 -0.433138 128.576 29.431 128.576 66.2702H129.442C129.442 29.9094 158.918 0.433138 195.279 0.433138V-0.433138ZM250.721 -0.433138H195.279V0.433138H250.721V-0.433138ZM301.077 66.2696C301.077 38.0422 278.194 15.1593 249.967 15.1593V16.0256C277.716 16.0256 300.211 38.5206 300.211 66.2696H301.077ZM249.967 117.38C278.194 117.38 301.077 94.4971 301.077 66.2696H300.211C300.211 94.0187 277.716 116.514 249.967 116.514V117.38ZM196.032 117.38H249.967V116.514H196.032V117.38ZM144.921 66.2696C144.921 94.4971 167.804 117.38 196.032 117.38V116.514C168.282 116.514 145.787 94.0187 145.787 66.2696H144.921ZM196.032 15.1593C167.804 15.1593 144.921 38.0422 144.921 66.2696H145.787C145.787 38.5206 168.282 16.0256 196.032 16.0256V15.1593ZM249.967 15.1593H196.032V16.0256H249.967V15.1593ZM234.262 43.3135C234.262 40.6822 236.396 38.549 239.027 38.549V37.6827C235.917 37.6827 233.396 40.2037 233.396 43.3135H234.262ZM234.262 89.2262V43.3135H233.396V89.2262H234.262ZM239.027 93.9907C236.396 93.9907 234.262 91.8576 234.262 89.2262H233.396C233.396 92.336 235.917 94.857 239.027 94.857V93.9907ZM246.823 93.9907H239.027V94.857H246.823V93.9907ZM247.256 94.4245V94.4239H246.39V94.4245H247.256ZM275.41 93.9913H246.823V94.8576H275.41V93.9913ZM280.174 89.2268C280.174 91.8582 278.041 93.9913 275.41 93.9913V94.8576C278.52 94.8576 281.041 92.3366 281.041 89.2268H280.174ZM280.174 88.3605V89.2268H281.041V88.3605H280.174ZM275.41 83.596C278.041 83.596 280.174 85.7291 280.174 88.3605H281.041C281.041 85.2507 278.52 82.7297 275.41 82.7297V83.596ZM246.823 83.596H275.41V82.7297H246.823V83.596ZM246.39 49.3776V83.1629H247.257V49.3776H246.39ZM275.41 48.9445H246.823V49.8107H275.41V48.9445ZM280.174 44.1799C280.174 46.8113 278.041 48.9445 275.41 48.9445V49.8107C278.52 49.8107 281.041 47.2897 281.041 44.1799H280.174ZM280.174 43.3137V44.1799H281.041V43.3137H280.174ZM275.41 38.5491C278.041 38.5491 280.174 40.6823 280.174 43.3137H281.041C281.041 40.2039 278.52 37.6829 275.41 37.6829V38.5491ZM246.823 38.5491L275.41 38.5491L275.41 37.6829L246.823 37.6829L246.823 38.5491ZM246.39 38.1159V38.116H247.257V38.1159H246.39ZM239.027 38.549H246.823V37.6827H239.027V38.549ZM281.041 66.703C281.041 63.5932 278.52 61.0722 275.41 61.0722V61.9385C278.041 61.9385 280.174 64.0716 280.174 66.703H281.041ZM281.041 67.5693V66.703H280.174V67.5693H281.041ZM275.41 73.2001C278.52 73.2001 281.041 70.6791 281.041 67.5693H280.174C280.174 70.2006 278.041 72.3338 275.41 72.3338V73.2001ZM252.02 73.2001H275.41V72.3338H252.02V73.2001ZM251.587 61.5053V72.7669H252.453V61.5053H251.587ZM275.41 61.0722H252.02V61.9385H275.41V61.0722ZM160.628 43.7465C160.628 41.1151 162.761 38.9819 165.393 38.9819V38.1157C162.283 38.1157 159.762 40.6367 159.762 43.7465H160.628ZM160.628 46.3453V43.7465H159.762V46.3453H160.628ZM165.393 51.1098C162.761 51.1098 160.628 48.9767 160.628 46.3453H159.762C159.762 49.4551 162.283 51.9761 165.393 51.9761V51.1098ZM184.452 51.1098H165.393V51.9761H184.452V51.1098ZM184.886 88.7928V51.543H184.019V88.7928H184.886ZM189.65 93.5573C187.019 93.5573 184.886 91.4242 184.886 88.7928H184.019C184.019 91.9026 186.54 94.4236 189.65 94.4236V93.5573ZM192.249 93.5573H189.65V94.4236H192.249V93.5573ZM197.013 88.7928C197.013 91.4242 194.88 93.5573 192.249 93.5573V94.4236C195.359 94.4236 197.88 91.9026 197.88 88.7928H197.013ZM197.013 51.543V88.7928H197.88V51.543H197.013ZM214.771 51.1098H197.447V51.9761H214.771V51.1098ZM219.535 46.3453C219.535 48.9767 217.402 51.1098 214.771 51.1098V51.9761C217.88 51.9761 220.401 49.4551 220.401 46.3453H219.535ZM219.535 43.7465V46.3453H220.401V43.7465H219.535ZM214.771 38.9819C217.402 38.9819 219.535 41.1151 219.535 43.7465H220.401C220.401 40.6367 217.88 38.1157 214.771 38.1157V38.9819ZM165.393 38.9819H214.771V38.1157H165.393V38.9819Z" fill="#02191C" mask="url(#path-1-inside-1_21_437)"/>
</g>
<path d="M100.394 189.721C100.394 191.353 101.459 192.453 103.125 192.453C104.79 192.453 105.856 191.353 105.856 189.721V172.634H111.019C112.584 172.634 113.85 171.835 113.85 170.336C113.85 168.837 112.584 168.038 111.019 168.038H95.2309C93.6654 168.038 92.3997 168.837 92.3997 170.336C92.3997 171.835 93.6654 172.634 95.2309 172.634H100.394V189.721ZM126.749 184.225C128.381 184.225 128.88 183.792 128.88 182.127C128.88 178.13 125.683 174.166 120.087 174.166C114.325 174.166 110.894 177.964 110.894 183.626C110.894 187.856 113.459 192.453 120.254 192.453C123.185 192.453 127.881 191.087 127.881 188.156C127.881 187.256 127.048 186.257 125.883 186.257C123.917 186.257 123.917 188.655 120.254 188.655C117.422 188.655 115.757 186.79 115.757 184.225H126.749ZM115.757 181.428C116.29 179.063 117.755 177.564 120.187 177.564C122.352 177.564 124.017 179.196 124.284 181.428H115.757ZM131.089 183.659C131.089 188.755 133.92 192.453 139.916 192.453C144.912 192.453 147.31 189.521 147.31 187.39C147.31 186.424 146.511 185.524 145.278 185.524C142.713 185.524 143.446 188.655 140.049 188.655C137.384 188.655 135.952 186.69 135.952 183.659C135.952 179.263 138.183 177.964 140.082 177.964C143.579 177.964 142.747 180.828 145.045 180.828C146.277 180.828 147.31 180.129 147.31 178.73C147.31 176.465 144.279 174.166 140.215 174.166C134.253 174.166 131.089 178.063 131.089 183.659ZM149.912 190.021C149.912 191.32 150.445 192.453 152.343 192.453C154.242 192.453 154.775 191.32 154.775 190.021V181.994C154.775 179.562 156.773 178.163 158.472 178.163C160.57 178.163 161.536 179.562 161.536 181.527V190.021C161.536 191.32 162.069 192.453 163.968 192.453C165.866 192.453 166.399 191.32 166.399 190.021V180.562C166.399 175.632 163.202 174.166 160.27 174.166C157.506 174.166 155.807 175.465 154.841 176.731H154.775V170.036C154.775 168.437 153.809 167.605 152.343 167.605C150.878 167.605 149.912 168.437 149.912 170.036V190.021ZM181.188 188.822C181.188 191.253 182.453 192.02 184.385 192.02H197.475C199.074 192.02 200.24 191.553 200.24 189.821C200.24 188.089 199.074 187.623 197.475 187.623H186.65V181.827H195.91C197.342 181.827 198.475 181.428 198.475 179.729C198.475 178.03 197.342 177.63 195.91 177.63H186.65V172.434H197.209C198.808 172.434 199.973 171.968 199.973 170.236C199.973 168.504 198.808 168.038 197.209 168.038H184.385C182.453 168.038 181.188 168.804 181.188 171.235V188.822ZM209.319 186.39L212.117 190.854C212.749 191.853 213.349 192.453 214.348 192.453C215.914 192.453 216.813 191.353 216.813 190.188C216.813 189.488 216.613 189.088 216.347 188.722L212.583 183.126L216.113 177.897C216.413 177.464 216.613 176.964 216.613 176.265C216.613 175.166 215.547 174.166 214.415 174.166C213.649 174.166 212.916 174.366 212.183 175.599L209.552 179.895L206.821 175.399C206.254 174.466 205.621 174.166 204.855 174.166C203.09 174.166 202.257 175.565 202.257 176.598C202.257 177.064 202.49 177.497 202.757 177.864L206.254 183.126L202.524 188.622C202.091 189.255 201.858 189.755 201.858 190.188C201.858 191.52 203.057 192.453 204.222 192.453C205.122 192.453 205.788 191.986 206.121 191.487L209.319 186.39ZM218.36 183.659C218.36 188.755 221.191 192.453 227.187 192.453C232.183 192.453 234.581 189.521 234.581 187.39C234.581 186.424 233.782 185.524 232.549 185.524C229.984 185.524 230.717 188.655 227.32 188.655C224.655 188.655 223.223 186.69 223.223 183.659C223.223 179.263 225.455 177.964 227.353 177.964C230.85 177.964 230.018 180.828 232.316 180.828C233.548 180.828 234.581 180.129 234.581 178.73C234.581 176.465 231.55 174.166 227.486 174.166C221.524 174.166 218.36 178.063 218.36 183.659ZM252.305 184.225C253.937 184.225 254.436 183.792 254.436 182.127C254.436 178.13 251.239 174.166 245.643 174.166C239.881 174.166 236.45 177.964 236.45 183.626C236.45 187.856 239.015 192.453 245.809 192.453C248.741 192.453 253.437 191.087 253.437 188.156C253.437 187.256 252.604 186.257 251.439 186.257C249.473 186.257 249.473 188.655 245.809 188.655C242.978 188.655 241.313 186.79 241.313 184.225H252.305ZM241.313 181.428C241.846 179.063 243.311 177.564 245.743 177.564C247.908 177.564 249.573 179.196 249.84 181.428H241.313ZM257.844 190.021C257.844 191.62 258.81 192.453 260.275 192.453C261.741 192.453 262.707 191.62 262.707 190.021V170.036C262.707 168.437 261.741 167.605 260.275 167.605C258.81 167.605 257.844 168.437 257.844 170.036V190.021ZM267.114 190.021C267.114 191.62 268.08 192.453 269.546 192.453C271.011 192.453 271.977 191.62 271.977 190.021V170.036C271.977 168.437 271.011 167.605 269.546 167.605C268.08 167.605 267.114 168.437 267.114 170.036V190.021ZM291.24 184.225C292.872 184.225 293.372 183.792 293.372 182.127C293.372 178.13 290.174 174.166 284.578 174.166C278.816 174.166 275.385 177.964 275.385 183.626C275.385 187.856 277.95 192.453 284.745 192.453C287.676 192.453 292.372 191.087 292.372 188.156C292.372 187.256 291.54 186.257 290.374 186.257C288.409 186.257 288.409 188.655 284.745 188.655C281.914 188.655 280.248 186.79 280.248 184.225H291.24ZM280.248 181.428C280.781 179.063 282.247 177.564 284.678 177.564C286.843 177.564 288.509 179.196 288.775 181.428H280.248ZM296.513 190.021C296.513 191.32 297.046 192.453 298.944 192.453C300.843 192.453 301.376 191.32 301.376 190.021V181.994C301.376 179.562 303.374 178.163 305.073 178.163C307.171 178.163 308.137 179.562 308.137 181.527V190.021C308.137 191.32 308.67 192.453 310.569 192.453C312.467 192.453 313 191.32 313 190.021V180.562C313 175.632 309.803 174.166 306.872 174.166C304.107 174.166 302.342 175.432 300.976 177.231H300.909V176.598C300.909 175.132 300.243 174.166 298.711 174.166C297.179 174.166 296.513 175.132 296.513 176.598V190.021ZM315.942 183.659C315.942 188.755 318.773 192.453 324.769 192.453C329.765 192.453 332.163 189.521 332.163 187.39C332.163 186.424 331.364 185.524 330.131 185.524C327.567 185.524 328.3 188.655 324.902 188.655C322.237 188.655 320.805 186.69 320.805 183.659C320.805 179.263 323.037 177.964 324.935 177.964C328.433 177.964 327.6 180.828 329.898 180.828C331.131 180.828 332.163 180.129 332.163 178.73C332.163 176.465 329.132 174.166 325.069 174.166C319.107 174.166 315.942 178.063 315.942 183.659ZM349.887 184.225C351.519 184.225 352.019 183.792 352.019 182.127C352.019 178.13 348.821 174.166 343.225 174.166C337.463 174.166 334.032 177.964 334.032 183.626C334.032 187.856 336.597 192.453 343.392 192.453C346.323 192.453 351.019 191.087 351.019 188.156C351.019 187.256 350.187 186.257 349.021 186.257C347.056 186.257 347.056 188.655 343.392 188.655C340.561 188.655 338.895 186.79 338.895 184.225H349.887ZM338.895 181.428C339.428 179.063 340.894 177.564 343.325 177.564C345.49 177.564 347.156 179.196 347.422 181.428H338.895Z" fill="url(#paint1_linear_21_437)"/>
<path d="M58.1778 307.822V289.336C58.1778 287.704 59.2437 286.605 60.9091 286.605C62.5745 286.605 63.6403 287.704 63.6403 289.336V306.423H72.7667C74.3322 306.423 75.5979 307.222 75.5979 308.721C75.5979 310.22 74.3322 311.02 72.7667 311.02H61.3754C59.4435 311.02 58.1778 310.253 58.1778 307.822ZM93.0623 303.225H82.0706C82.0706 305.79 83.736 307.655 86.5672 307.655C90.2311 307.655 90.2311 305.257 92.1963 305.257C93.3621 305.257 94.1948 306.256 94.1948 307.156C94.1948 310.087 89.4983 311.453 86.5672 311.453C79.7724 311.453 77.2077 306.856 77.2077 302.626C77.2077 296.964 80.6384 293.166 86.4007 293.166C91.9964 293.166 95.194 297.13 95.194 301.127C95.194 302.792 94.6944 303.225 93.0623 303.225ZM82.0706 300.428H90.5975C90.331 298.196 88.6656 296.564 86.5006 296.564C84.0691 296.564 82.6036 298.063 82.0706 300.428ZM114.49 298.163V306.323C114.49 308.355 114.989 308.821 114.989 309.587C114.989 310.686 113.957 311.453 112.791 311.453C110.692 311.453 109.993 310.12 109.926 308.621C108.028 310.72 105.829 311.453 103.265 311.453C100.5 311.453 97.7689 309.554 97.7689 306.49C97.7689 302.459 100.833 301.327 104.564 300.894L107.528 300.561C108.694 300.428 109.627 300.161 109.627 298.762C109.627 297.363 108.194 296.764 106.562 296.764C102.965 296.764 102.865 299.428 100.933 299.428C99.7008 299.428 98.8681 298.562 98.8681 297.563C98.8681 295.631 101.599 293.166 106.596 293.166C111.259 293.166 114.49 294.665 114.49 298.163ZM109.627 304.724V302.826C109.094 303.325 108.094 303.492 107.528 303.592L105.763 303.858C103.731 304.158 102.632 304.791 102.632 306.256C102.632 307.356 103.664 308.255 105.33 308.255C107.994 308.255 109.627 306.523 109.627 304.724ZM118.964 309.021V295.431C118.964 293.966 119.93 293.166 121.162 293.166C122.394 293.166 123.36 293.966 123.36 295.431V297.297H123.427C123.993 295.265 125.092 293.166 127.457 293.166C128.989 293.166 130.122 294.166 130.122 295.531C130.122 297.33 128.923 297.963 127.724 297.963H126.858C124.893 297.963 123.827 299.328 123.827 303.359V309.021C123.827 310.32 123.294 311.453 121.395 311.453C119.497 311.453 118.964 310.32 118.964 309.021ZM132.261 309.021V295.598C132.261 294.132 132.927 293.166 134.46 293.166C135.992 293.166 136.658 294.132 136.658 295.598V296.231H136.725C138.09 294.432 139.855 293.166 142.62 293.166C145.551 293.166 148.749 294.632 148.749 299.562V309.021C148.749 310.32 148.216 311.453 146.317 311.453C144.419 311.453 143.886 310.32 143.886 309.021V300.527C143.886 298.562 142.92 297.163 140.821 297.163C139.123 297.163 137.124 298.562 137.124 300.994V309.021C137.124 310.32 136.591 311.453 134.693 311.453C132.794 311.453 132.261 310.32 132.261 309.021ZM162.804 309.021V289.036C162.804 287.437 163.77 286.605 165.236 286.605C166.702 286.605 167.667 287.437 167.667 289.036V295.731H167.734C168.7 294.465 170.399 293.166 173.163 293.166C176.094 293.166 179.292 294.632 179.292 299.562V309.021C179.292 310.32 178.759 311.453 176.861 311.453C174.962 311.453 174.429 310.32 174.429 309.021V300.527C174.429 298.562 173.463 297.163 171.365 297.163C169.666 297.163 167.667 298.562 167.667 300.994V309.021C167.667 310.32 167.135 311.453 165.236 311.453C163.337 311.453 162.804 310.32 162.804 309.021ZM187.297 302.293C187.297 305.257 188.529 307.855 191.427 307.855C194.325 307.855 195.557 305.257 195.557 302.293C195.557 299.129 194.258 296.764 191.427 296.764C188.596 296.764 187.297 299.129 187.297 302.293ZM182.434 302.293C182.434 297.163 185.565 293.166 191.427 293.166C197.289 293.166 200.42 297.163 200.42 302.293C200.42 307.156 198.055 311.453 191.427 311.453C184.799 311.453 182.434 307.156 182.434 302.293ZM205.764 308.821L202.2 297.23C202.034 296.697 201.867 296.164 201.867 295.431C201.867 294.166 203 293.166 204.232 293.166C206.031 293.166 206.297 294.132 206.63 295.531L209.195 306.19H209.262L211.327 296.497C211.727 294.599 212.126 293.1 214.391 293.166C216.689 293.1 217.156 294.565 217.589 296.497L219.687 306.19H219.754L222.152 295.531C222.452 294.132 222.752 293.166 224.55 293.166C225.783 293.166 226.915 294.166 226.915 295.431C226.915 296.164 226.748 296.697 226.582 297.23L223.018 308.821C222.318 311.119 221.786 311.453 219.854 311.453C217.822 311.453 217.322 310.853 216.823 308.921L214.424 299.362H214.358L211.96 308.921C211.46 310.853 210.96 311.453 208.929 311.453C206.997 311.453 206.464 311.119 205.764 308.821ZM240.737 307.122V296.797H239.905C238.539 296.797 237.973 296.264 237.973 295.198C237.973 294.132 238.539 293.599 239.905 293.599H240.737V290.635C240.737 289.036 241.703 288.203 243.169 288.203C244.634 288.203 245.6 289.036 245.6 290.635V293.599H247.066C248.498 293.599 249.264 294.032 249.264 295.198C249.264 296.364 248.498 296.797 247.066 296.797H245.6V306.523C245.6 307.256 246 307.655 246.866 307.655H247.565C248.631 307.655 249.264 308.255 249.264 309.288C249.264 310.686 248.065 311.453 245.734 311.453C242.203 311.453 240.737 309.987 240.737 307.122ZM255.93 302.293C255.93 305.257 257.162 307.855 260.06 307.855C262.958 307.855 264.19 305.257 264.19 302.293C264.19 299.129 262.891 296.764 260.06 296.764C257.229 296.764 255.93 299.129 255.93 302.293ZM251.067 302.293C251.067 297.163 254.198 293.166 260.06 293.166C265.922 293.166 269.053 297.163 269.053 302.293C269.053 307.156 266.688 311.453 260.06 311.453C253.432 311.453 251.067 307.156 251.067 302.293ZM298.863 289.036V309.154C298.863 310.653 298.163 311.453 296.664 311.453C295.232 311.453 294.466 310.653 294.466 309.154V308.388H294.4C293.6 310.453 291.635 311.453 289.27 311.453C285.207 311.453 281.643 308.488 281.643 302.193C281.643 297.53 284.007 293.166 289.137 293.166C291.302 293.166 292.967 294.066 293.933 295.631H294V289.036C294 287.437 294.966 286.605 296.431 286.605C297.897 286.605 298.863 287.437 298.863 289.036ZM286.506 302.359C286.506 305.224 287.771 307.589 290.369 307.655C293.2 307.655 294.266 305.124 294.266 302.359C294.266 299.861 293.334 296.93 290.369 296.964C287.272 296.964 286.506 300.094 286.506 302.359ZM317.859 303.225H306.868C306.868 305.79 308.533 307.655 311.364 307.655C315.028 307.655 315.028 305.257 316.993 305.257C318.159 305.257 318.992 306.256 318.992 307.156C318.992 310.087 314.295 311.453 311.364 311.453C304.569 311.453 302.005 306.856 302.005 302.626C302.005 296.964 305.435 293.166 311.198 293.166C316.793 293.166 319.991 297.13 319.991 301.127C319.991 302.792 319.491 303.225 317.859 303.225ZM306.868 300.428H315.395C315.128 298.196 313.463 296.564 311.298 296.564C308.866 296.564 307.401 298.063 306.868 300.428ZM323.399 309.021V289.036C323.399 287.437 324.365 286.605 325.83 286.605C327.296 286.605 328.262 287.437 328.262 289.036V309.021C328.262 310.62 327.296 311.453 325.83 311.453C324.365 311.453 323.399 310.62 323.399 309.021ZM332.669 309.021V295.598C332.669 294.299 333.202 293.166 335.1 293.166C336.999 293.166 337.532 294.299 337.532 295.598V309.021C337.532 310.32 336.999 311.453 335.1 311.453C333.202 311.453 332.669 310.32 332.669 309.021ZM332.569 289.003C332.569 287.604 333.702 286.471 335.1 286.471C336.499 286.471 337.632 287.604 337.632 289.003C337.632 290.402 336.499 291.534 335.1 291.534C333.702 291.534 332.569 290.402 332.569 289.003ZM344.87 309.721L340.274 296.93C340.141 296.531 339.974 295.998 339.974 295.698C339.974 293.966 341.173 293.166 342.339 293.166C344.171 293.166 344.637 294.699 344.77 295.198L348.035 306.19H348.101L351.365 295.198C351.499 294.699 351.965 293.166 353.797 293.166C354.963 293.166 356.162 293.966 356.162 295.698C356.162 295.998 355.995 296.531 355.862 296.93L351.266 309.721C350.799 311.02 350.499 311.453 348.068 311.453C345.636 311.453 345.337 311.02 344.87 309.721ZM373.449 303.225H362.457C362.457 305.79 364.122 307.655 366.954 307.655C370.618 307.655 370.618 305.257 372.583 305.257C373.749 305.257 374.581 306.256 374.581 307.156C374.581 310.087 369.885 311.453 366.954 311.453C360.159 311.453 357.594 306.856 357.594 302.626C357.594 296.964 361.025 293.166 366.787 293.166C372.383 293.166 375.58 297.13 375.58 301.127C375.58 302.792 375.081 303.225 373.449 303.225ZM362.457 300.428H370.984C370.717 298.196 369.052 296.564 366.887 296.564C364.456 296.564 362.99 298.063 362.457 300.428ZM378.988 309.021V295.431C378.988 293.966 379.954 293.166 381.186 293.166C382.419 293.166 383.385 293.966 383.385 295.431V297.297H383.451C384.018 295.265 385.117 293.166 387.482 293.166C389.014 293.166 390.146 294.166 390.146 295.531C390.146 297.33 388.947 297.963 387.748 297.963H386.882C384.917 297.963 383.851 299.328 383.851 303.359V309.021C383.851 310.32 383.318 311.453 381.419 311.453C379.521 311.453 378.988 310.32 378.988 309.021ZM1.49003 337.729C1.49003 330.701 5.75347 325.471 13.6142 325.471C21.4749 325.471 25.7383 330.701 25.7383 337.729C25.7383 341.26 24.6725 344.657 22.4408 346.988L24.5392 348.954C24.8057 349.187 24.9722 349.52 24.9722 349.886C24.9722 350.819 24.0729 351.918 23.107 351.918C22.3076 351.918 22.0078 351.652 21.5415 351.219L19.4431 349.253C17.811 350.119 15.8791 350.586 13.6142 350.586C5.02069 350.586 1.49003 344.99 1.49003 337.729ZM6.95256 337.729C6.95256 342.325 8.48473 346.189 13.6142 346.189C14.4469 346.189 15.1797 346.089 15.8125 345.889L13.9473 344.157C13.6808 343.924 13.5143 343.591 13.5143 343.225C13.5143 342.292 14.4136 341.193 15.3795 341.193C16.1789 341.193 16.4787 341.459 16.945 341.892L18.8435 343.624C19.8428 342.126 20.2758 340.027 20.2758 337.729C20.2758 333.132 18.0775 329.868 13.6142 329.868C9.15089 329.868 6.95256 333.132 6.95256 337.729ZM29.7488 341.026V328.336C29.7488 326.704 30.8147 325.605 32.4801 325.605C34.1455 325.605 35.2113 326.704 35.2113 328.336V341.459C35.2113 344.724 37.0433 346.189 40.1743 346.189C43.3052 346.189 45.1372 344.724 45.1372 341.459V328.336C45.1372 326.704 46.203 325.605 47.8684 325.605C49.5338 325.605 50.5997 326.704 50.5997 328.336V341.026C50.5997 347.621 46.5361 350.586 40.1743 350.586C33.8124 350.586 29.7488 347.621 29.7488 341.026ZM53.389 345.956L60.4503 327.27C60.9166 326.038 61.7826 325.605 63.1149 325.605H64.414C65.6464 325.605 66.7455 325.904 67.3451 327.603L73.9401 345.956C74.1399 346.489 74.473 347.455 74.473 348.054C74.473 349.387 73.3072 350.453 71.9083 350.453C70.7092 350.453 69.8432 350.02 69.4435 348.954L68.0445 344.957H59.2512L57.819 348.954C57.4526 350.02 56.6865 350.453 55.3875 350.453C53.8886 350.453 52.856 349.52 52.856 348.054C52.856 347.455 53.1891 346.489 53.389 345.956ZM66.8454 341.16L63.7478 331.534H63.6812L60.4503 341.16H66.8454ZM77.3039 346.822V328.336C77.3039 326.704 78.3698 325.605 80.0352 325.605C81.7006 325.605 82.7664 326.704 82.7664 328.336V345.423H91.8929C93.4583 345.423 94.7241 346.222 94.7241 347.721C94.7241 349.22 93.4583 350.02 91.8929 350.02H80.5015C78.5696 350.02 77.3039 349.253 77.3039 346.822ZM97.6661 347.721V328.336C97.6661 326.704 98.7319 325.605 100.397 325.605C102.063 325.605 103.129 326.704 103.129 328.336V347.721C103.129 349.353 102.063 350.453 100.397 350.453C98.7319 350.453 97.6661 349.353 97.6661 347.721ZM114.067 347.721V330.634H108.904C107.339 330.634 106.073 329.835 106.073 328.336C106.073 326.837 107.339 326.038 108.904 326.038H124.692C126.258 326.038 127.524 326.837 127.524 328.336C127.524 329.835 126.258 330.634 124.692 330.634H119.53V347.721C119.53 349.353 118.464 350.453 116.798 350.453C115.133 350.453 114.067 349.353 114.067 347.721ZM135.383 347.721V340.66L128.688 329.535C128.422 329.102 128.222 328.602 128.222 328.103C128.222 326.238 129.921 325.605 130.987 325.605C132.286 325.605 132.885 326.138 133.451 327.203L138.215 335.964L142.944 327.203C143.577 326.004 144.177 325.605 145.309 325.605C146.308 325.605 148.007 326.238 148.007 328.103C148.007 328.602 147.807 329.102 147.541 329.535L140.846 340.66V347.721C140.846 349.353 139.78 350.453 138.115 350.453C136.449 350.453 135.383 349.353 135.383 347.721ZM159.664 337.596C159.664 333.632 163.594 332.166 166.958 332.166C170.656 332.166 174.386 333.632 174.386 335.864C174.386 336.996 173.62 337.995 172.354 337.995C170.456 337.995 170.389 335.764 167.325 335.764C165.626 335.764 164.527 336.23 164.527 337.263C164.527 338.395 165.626 338.661 167.125 338.995L169.157 339.461C171.921 340.094 175.219 341.26 175.219 344.657C175.219 348.621 171.388 350.453 167.724 350.453C163.328 350.453 159.664 348.487 159.664 346.089C159.664 345.023 160.263 344.057 161.629 344.057C163.727 344.057 163.927 347.055 167.525 347.055C169.257 347.055 170.356 346.289 170.356 345.29C170.356 344.057 169.29 343.858 167.558 343.425L164.693 342.725C161.862 342.026 159.664 340.86 159.664 337.596ZM182.45 341.293C182.45 344.257 183.683 346.855 186.58 346.855C189.478 346.855 190.711 344.257 190.711 341.293C190.711 338.129 189.412 335.764 186.58 335.764C183.749 335.764 182.45 338.129 182.45 341.293ZM177.587 341.293C177.587 336.163 180.718 332.166 186.58 332.166C192.443 332.166 195.574 336.163 195.574 341.293C195.574 346.156 193.209 350.453 186.58 350.453C179.952 350.453 177.587 346.156 177.587 341.293ZM200.247 348.021V335.797H199.148C197.782 335.797 197.216 335.264 197.216 334.198C197.216 333.132 197.782 332.599 199.148 332.599H200.247V330.168C200.247 327.104 202.778 325.471 205.61 325.471C207.375 325.471 208.807 326.171 208.807 327.803C208.807 328.702 208.108 329.468 207.242 329.468C206.875 329.468 206.542 329.369 206.176 329.369C205.476 329.369 205.11 329.835 205.11 330.501V332.599H206.609C208.041 332.599 208.807 333.032 208.807 334.198C208.807 335.364 208.041 335.797 206.609 335.797H205.11V348.021C205.11 349.62 204.144 350.453 202.678 350.453C201.213 350.453 200.247 349.62 200.247 348.021ZM212.308 346.122V335.797H211.476C210.11 335.797 209.544 335.264 209.544 334.198C209.544 333.132 210.11 332.599 211.476 332.599H212.308V329.635C212.308 328.036 213.274 327.203 214.74 327.203C216.205 327.203 217.171 328.036 217.171 329.635V332.599H218.637C220.069 332.599 220.835 333.032 220.835 334.198C220.835 335.364 220.069 335.797 218.637 335.797H217.171V345.523C217.171 346.256 217.571 346.655 218.437 346.655H219.137C220.202 346.655 220.835 347.255 220.835 348.288C220.835 349.686 219.636 350.453 217.305 350.453C213.774 350.453 212.308 348.987 212.308 346.122ZM225.769 347.821L222.205 336.23C222.038 335.697 221.872 335.164 221.872 334.431C221.872 333.166 223.004 332.166 224.237 332.166C226.035 332.166 226.302 333.132 226.635 334.531L229.199 345.19H229.266L231.331 335.497C231.731 333.599 232.131 332.1 234.396 332.166C236.694 332.1 237.16 333.565 237.593 335.497L239.692 345.19H239.758L242.156 334.531C242.456 333.132 242.756 332.166 244.554 332.166C245.787 332.166 246.919 333.166 246.919 334.431C246.919 335.164 246.753 335.697 246.586 336.23L243.022 347.821C242.323 350.119 241.79 350.453 239.858 350.453C237.826 350.453 237.327 349.853 236.827 347.921L234.429 338.362H234.362L231.964 347.921C231.464 349.853 230.965 350.453 228.933 350.453C227.001 350.453 226.468 350.119 225.769 347.821ZM265.449 337.163V345.323C265.449 347.355 265.949 347.821 265.949 348.587C265.949 349.686 264.916 350.453 263.751 350.453C261.652 350.453 260.953 349.12 260.886 347.621C258.988 349.72 256.789 350.453 254.225 350.453C251.46 350.453 248.729 348.554 248.729 345.49C248.729 341.459 251.793 340.327 255.524 339.894L258.488 339.561C259.654 339.428 260.586 339.161 260.586 337.762C260.586 336.363 259.154 335.764 257.522 335.764C253.925 335.764 253.825 338.428 251.893 338.428C250.661 338.428 249.828 337.562 249.828 336.563C249.828 334.631 252.559 332.166 257.555 332.166C262.218 332.166 265.449 333.665 265.449 337.163ZM260.586 343.724V341.826C260.053 342.325 259.054 342.492 258.488 342.592L256.723 342.858C254.691 343.158 253.592 343.791 253.592 345.256C253.592 346.356 254.624 347.255 256.29 347.255C258.954 347.255 260.586 345.523 260.586 343.724ZM269.924 348.021V334.431C269.924 332.966 270.889 332.166 272.122 332.166C273.354 332.166 274.32 332.966 274.32 334.431V336.297H274.387C274.953 334.265 276.052 332.166 278.417 332.166C279.949 332.166 281.082 333.166 281.082 334.531C281.082 336.33 279.883 336.963 278.684 336.963H277.818C275.852 336.963 274.787 338.328 274.787 342.359V348.021C274.787 349.32 274.254 350.453 272.355 350.453C270.456 350.453 269.924 349.32 269.924 348.021ZM297.953 342.225H286.961C286.961 344.79 288.626 346.655 291.457 346.655C295.121 346.655 295.121 344.257 297.087 344.257C298.252 344.257 299.085 345.256 299.085 346.156C299.085 349.087 294.389 350.453 291.457 350.453C284.663 350.453 282.098 345.856 282.098 341.626C282.098 335.964 285.529 332.166 291.291 332.166C296.887 332.166 300.084 336.13 300.084 340.127C300.084 341.792 299.585 342.225 297.953 342.225ZM286.961 339.428H295.488C295.221 337.196 293.556 335.564 291.391 335.564C288.959 335.564 287.494 337.063 286.961 339.428ZM314.139 347.721V329.235C314.139 326.804 315.405 326.038 317.337 326.038H329.361C330.96 326.038 332.126 326.504 332.126 328.236C332.126 329.968 330.96 330.434 329.361 330.434H319.602V336.03H327.862C329.294 336.03 330.427 336.43 330.427 338.129C330.427 339.827 329.294 340.227 327.862 340.227H319.602V347.721C319.602 349.353 318.536 350.453 316.871 350.453C315.205 350.453 314.139 349.353 314.139 347.721ZM332.051 345.956L339.113 327.27C339.579 326.038 340.445 325.605 341.777 325.605H343.076C344.309 325.605 345.408 325.904 346.008 327.603L352.603 345.956C352.802 346.489 353.135 347.455 353.135 348.054C353.135 349.387 351.97 350.453 350.571 350.453C349.372 350.453 348.506 350.02 348.106 348.954L346.707 344.957H337.914L336.481 348.954C336.115 350.02 335.349 350.453 334.05 350.453C332.551 350.453 331.519 349.52 331.519 348.054C331.519 347.455 331.852 346.489 332.051 345.956ZM345.508 341.16L342.41 331.534H342.344L339.113 341.16H345.508ZM363.96 335.098L368.524 336.13C373.52 337.263 374.785 340.227 374.785 343.025C374.785 347.355 371.521 350.586 364.926 350.586C357.998 350.586 354.901 347.122 354.901 344.524C354.901 343.191 355.866 342.259 357.199 342.259C360.163 342.259 359.397 346.589 364.926 346.589C367.757 346.589 369.323 345.023 369.323 343.425C369.323 342.459 368.857 341.393 366.991 340.926L360.829 339.361C355.866 338.095 354.967 335.364 354.967 332.799C354.967 327.47 359.897 325.471 364.527 325.471C368.79 325.471 373.82 327.87 373.82 331.067C373.82 332.433 372.654 333.232 371.321 333.232C368.79 333.232 369.256 329.668 364.16 329.668C361.629 329.668 360.23 330.834 360.23 332.499C360.23 334.165 362.228 334.698 363.96 335.098ZM384.63 347.721V330.634H379.468C377.902 330.634 376.636 329.835 376.636 328.336C376.636 326.837 377.902 326.038 379.468 326.038H395.256C396.821 326.038 398.087 326.837 398.087 328.336C398.087 329.835 396.821 330.634 395.256 330.634H390.093V347.721C390.093 349.353 389.027 350.453 387.362 350.453C385.696 350.453 384.63 349.353 384.63 347.721ZM401.15 346.822V329.235C401.15 326.804 402.416 326.038 404.348 326.038H417.171C418.77 326.038 419.936 326.504 419.936 328.236C419.936 329.968 418.77 330.434 417.171 330.434H406.613V335.63H415.872C417.305 335.63 418.437 336.03 418.437 337.729C418.437 339.428 417.305 339.827 415.872 339.827H406.613V345.623H417.438C419.037 345.623 420.202 346.089 420.202 347.821C420.202 349.553 419.037 350.02 417.438 350.02H404.348C402.416 350.02 401.15 349.253 401.15 346.822ZM423.819 347.721V329.235C423.819 326.804 425.084 326.038 427.016 326.038H436.109C442.604 326.038 444.336 329.602 444.336 332.699C444.336 335.297 442.804 337.862 440.206 338.462V338.528C443.004 338.928 443.504 340.96 443.504 343.391C443.504 346.156 444.236 347.188 444.236 348.321C444.236 349.587 442.937 350.453 441.672 350.453C438.674 350.453 438.441 347.555 438.441 346.589C438.441 342.392 437.675 340.693 434.677 340.693H429.281V347.721C429.281 349.353 428.215 350.453 426.55 350.453C424.884 350.453 423.819 349.353 423.819 347.721ZM429.281 330.235V336.696H434.744C436.809 336.696 438.874 336.163 438.874 333.465C438.874 330.901 437.308 330.235 434.91 330.235H429.281Z" fill="url(#paint2_linear_21_437)"/>
<path d="M40.5455 400.406C40.5455 401.445 40.9718 402.351 42.4907 402.351C44.0095 402.351 44.4359 401.445 44.4359 400.406V393.931C44.4359 392.119 45.7682 390.919 47.2604 390.919C48.7793 390.919 49.3921 392.039 49.3921 393.424V400.406C49.3921 401.445 49.8185 402.351 51.3373 402.351C52.8562 402.351 53.2825 401.445 53.2825 400.406V393.931C53.2825 392.119 54.6148 390.919 56.107 390.919C57.6259 390.919 58.2388 392.039 58.2388 393.424V400.406C58.2388 401.445 58.6651 402.351 60.1839 402.351C61.7028 402.351 62.1291 401.445 62.1291 400.406V392.438C62.1291 388.948 59.9708 387.722 57.2795 387.722C55.1744 387.722 53.7888 388.655 52.6963 390.173C51.9768 388.335 50.2981 387.722 48.9658 387.722C46.9939 387.722 45.2886 388.628 44.276 390.173H44.2227V389.667C44.2227 388.495 43.5299 387.722 42.3841 387.722C41.2383 387.722 40.5455 388.495 40.5455 389.667V400.406ZM77.3118 395.769C78.6175 395.769 79.0172 395.423 79.0172 394.09C79.0172 390.893 76.4591 387.722 71.9825 387.722C67.3727 387.722 64.6281 390.76 64.6281 395.289C64.6281 398.674 66.6799 402.351 72.1157 402.351C74.4606 402.351 78.2178 401.258 78.2178 398.913C78.2178 398.194 77.5516 397.395 76.619 397.395C75.0468 397.395 75.0468 399.313 72.1157 399.313C69.8508 399.313 68.5185 397.821 68.5185 395.769H77.3118ZM68.5185 393.531C68.9448 391.639 70.1172 390.44 72.0624 390.44C73.7945 390.44 75.1268 391.746 75.34 393.531H68.5185ZM93.6275 395.769C94.9332 395.769 95.3329 395.423 95.3329 394.09C95.3329 390.893 92.7749 387.722 88.2983 387.722C83.6884 387.722 80.9438 390.76 80.9438 395.289C80.9438 398.674 82.9956 402.351 88.4315 402.351C90.7764 402.351 94.5335 401.258 94.5335 398.913C94.5335 398.194 93.8674 397.395 92.9347 397.395C91.3626 397.395 91.3626 399.313 88.4315 399.313C86.1665 399.313 84.8342 397.821 84.8342 395.769H93.6275ZM84.8342 393.531C85.2606 391.639 86.433 390.44 88.3782 390.44C90.1102 390.44 91.4425 391.746 91.6557 393.531H84.8342ZM98.8584 398.887C98.8584 401.178 100.031 402.351 102.855 402.351C104.721 402.351 105.68 401.738 105.68 400.619C105.68 399.793 105.174 399.313 104.321 399.313H103.761C103.069 399.313 102.749 398.993 102.749 398.407V390.626H103.921C105.067 390.626 105.68 390.28 105.68 389.347C105.68 388.415 105.067 388.068 103.921 388.068H102.749V385.697C102.749 384.418 101.976 383.752 100.804 383.752C99.6311 383.752 98.8584 384.418 98.8584 385.697V388.068H98.1922C97.0997 388.068 96.6467 388.495 96.6467 389.347C96.6467 390.2 97.0997 390.626 98.1922 390.626H98.8584V398.887ZM120.898 389.667C120.898 388.628 120.472 387.722 118.953 387.722C117.434 387.722 117.008 388.628 117.008 389.667V396.089C117.008 398.034 115.409 399.153 114.05 399.153C112.371 399.153 111.599 398.034 111.599 396.462V389.667C111.599 388.628 111.172 387.722 109.653 387.722C108.134 387.722 107.708 388.628 107.708 389.667V397.235C107.708 401.178 110.266 402.351 112.611 402.351C114.823 402.351 116.235 401.338 117.327 399.899H117.381V400.406C117.381 401.578 117.914 402.351 119.139 402.351C120.365 402.351 120.898 401.578 120.898 400.406V389.667ZM123.998 405.575C123.998 406.854 124.771 407.52 125.943 407.52C127.115 407.52 127.888 406.854 127.888 405.575V400.379H127.942C128.661 401.631 129.993 402.351 131.779 402.351C135.882 402.351 137.774 398.86 137.774 395.13C137.774 390.093 134.923 387.722 131.672 387.722C129.78 387.722 128.208 388.521 127.568 390.173H127.515V389.56C127.515 388.361 126.902 387.722 125.757 387.722C124.557 387.722 123.998 388.361 123.998 389.56V405.575ZM133.884 394.996C133.884 396.808 133.271 399.313 130.793 399.313C128.421 399.34 127.675 396.995 127.675 394.996C127.675 392.785 128.528 390.76 130.793 390.76C132.871 390.813 133.884 392.705 133.884 394.996ZM140.634 400.006C140.634 401.205 141.62 402.191 142.819 402.191C144.018 402.191 145.004 401.205 145.004 400.006C145.004 398.807 144.018 397.821 142.819 397.821C141.62 397.821 140.634 398.807 140.634 400.006ZM147.686 395.316C147.686 399.393 149.951 402.351 154.748 402.351C158.745 402.351 160.663 400.006 160.663 398.301C160.663 397.528 160.024 396.808 159.038 396.808C156.986 396.808 157.572 399.313 154.854 399.313C152.723 399.313 151.577 397.741 151.577 395.316C151.577 391.799 153.362 390.76 154.881 390.76C157.679 390.76 157.013 393.051 158.851 393.051C159.837 393.051 160.663 392.492 160.663 391.372C160.663 389.56 158.238 387.722 154.987 387.722C150.218 387.722 147.686 390.84 147.686 395.316ZM166.049 395.023C166.049 392.492 167.088 390.6 169.353 390.6C171.618 390.6 172.657 392.492 172.657 395.023C172.657 397.395 171.671 399.473 169.353 399.473C167.035 399.473 166.049 397.395 166.049 395.023ZM162.158 395.023C162.158 398.913 164.05 402.351 169.353 402.351C174.655 402.351 176.547 398.913 176.547 395.023C176.547 390.919 174.043 387.722 169.353 387.722C164.663 387.722 162.158 390.919 162.158 395.023ZM179.06 400.406C179.06 401.445 179.487 402.351 181.005 402.351C182.524 402.351 182.951 401.445 182.951 400.406V393.931C182.951 392.119 184.283 390.919 185.775 390.919C187.294 390.919 187.907 392.039 187.907 393.424V400.406C187.907 401.445 188.333 402.351 189.852 402.351C191.371 402.351 191.797 401.445 191.797 400.406V393.931C191.797 392.119 193.13 390.919 194.622 390.919C196.141 390.919 196.754 392.039 196.754 393.424V400.406C196.754 401.445 197.18 402.351 198.699 402.351C200.218 402.351 200.644 401.445 200.644 400.406V392.438C200.644 388.948 198.486 387.722 195.794 387.722C193.689 387.722 192.304 388.655 191.211 390.173C190.492 388.335 188.813 387.722 187.481 387.722C185.509 387.722 183.803 388.628 182.791 390.173H182.737V389.667C182.737 388.495 182.045 387.722 180.899 387.722C179.753 387.722 179.06 388.495 179.06 389.667V400.406ZM202.61 400.219C202.503 400.512 202.397 400.805 202.397 401.098C202.397 401.951 203.169 402.457 203.782 402.457C204.822 402.457 205.088 401.791 205.248 401.365L211.616 384.604C211.723 384.311 211.83 384.018 211.83 383.725C211.83 382.872 211.057 382.366 210.444 382.366C209.405 382.366 209.138 383.032 208.978 383.458L202.61 400.219ZM214.604 398.887C214.604 401.178 215.776 402.351 218.601 402.351C220.466 402.351 221.425 401.738 221.425 400.619C221.425 399.793 220.919 399.313 220.066 399.313H219.507C218.814 399.313 218.494 398.993 218.494 398.407V390.626H219.667C220.813 390.626 221.425 390.28 221.425 389.347C221.425 388.415 220.813 388.068 219.667 388.068H218.494V385.697C218.494 384.418 217.722 383.752 216.549 383.752C215.377 383.752 214.604 384.418 214.604 385.697V388.068H213.938C212.845 388.068 212.392 388.495 212.392 389.347C212.392 390.2 212.845 390.626 213.938 390.626H214.604V398.887ZM235.551 395.769C236.857 395.769 237.257 395.423 237.257 394.09C237.257 390.893 234.699 387.722 230.222 387.722C225.612 387.722 222.867 390.76 222.867 395.289C222.867 398.674 224.919 402.351 230.355 402.351C232.7 402.351 236.457 401.258 236.457 398.913C236.457 398.194 235.791 397.395 234.858 397.395C233.286 397.395 233.286 399.313 230.355 399.313C228.09 399.313 226.758 397.821 226.758 395.769H235.551ZM226.758 393.531C227.184 391.639 228.357 390.44 230.302 390.44C232.034 390.44 233.366 391.746 233.579 393.531H226.758ZM239.023 395.316C239.023 399.393 241.288 402.351 246.085 402.351C250.082 402.351 252 400.006 252 398.301C252 397.528 251.361 396.808 250.375 396.808C248.323 396.808 248.909 399.313 246.191 399.313C244.06 399.313 242.914 397.741 242.914 395.316C242.914 391.799 244.699 390.76 246.218 390.76C249.016 390.76 248.35 393.051 250.188 393.051C251.174 393.051 252 392.492 252 391.372C252 389.56 249.575 387.722 246.324 387.722C241.555 387.722 239.023 390.84 239.023 395.316ZM254.082 400.406C254.082 401.445 254.508 402.351 256.027 402.351C257.546 402.351 257.972 401.445 257.972 400.406V393.984C257.972 392.039 259.571 390.919 260.93 390.919C262.608 390.919 263.381 392.039 263.381 393.611V400.406C263.381 401.445 263.807 402.351 265.326 402.351C266.845 402.351 267.272 401.445 267.272 400.406V392.838C267.272 388.894 264.713 387.722 262.369 387.722C260.157 387.722 258.798 388.761 258.025 389.774H257.972V384.418C257.972 383.139 257.199 382.473 256.027 382.473C254.854 382.473 254.082 383.139 254.082 384.418V400.406ZM282.469 395.769C283.774 395.769 284.174 395.423 284.174 394.09C284.174 390.893 281.616 387.722 277.139 387.722C272.53 387.722 269.785 390.76 269.785 395.289C269.785 398.674 271.837 402.351 277.273 402.351C279.618 402.351 283.375 401.258 283.375 398.913C283.375 398.194 282.709 397.395 281.776 397.395C280.204 397.395 280.204 399.313 277.273 399.313C275.008 399.313 273.675 397.821 273.675 395.769H282.469ZM273.675 393.531C274.102 391.639 275.274 390.44 277.219 390.44C278.951 390.44 280.284 391.746 280.497 393.531H273.675ZM291.537 397.501L293.775 401.072C294.281 401.871 294.761 402.351 295.56 402.351C296.813 402.351 297.532 401.471 297.532 400.539C297.532 399.979 297.372 399.66 297.159 399.366L294.148 394.89L296.973 390.706C297.212 390.36 297.372 389.96 297.372 389.401C297.372 388.521 296.52 387.722 295.614 387.722C295.001 387.722 294.414 387.882 293.828 388.868L291.723 392.305L289.538 388.708C289.085 387.962 288.579 387.722 287.966 387.722C286.554 387.722 285.888 388.841 285.888 389.667C285.888 390.04 286.074 390.387 286.287 390.68L289.085 394.89L286.101 399.286C285.754 399.793 285.568 400.192 285.568 400.539C285.568 401.605 286.527 402.351 287.46 402.351C288.179 402.351 288.712 401.978 288.979 401.578L291.537 397.501ZM298.77 395.316C298.77 399.393 301.035 402.351 305.831 402.351C309.828 402.351 311.747 400.006 311.747 398.301C311.747 397.528 311.107 396.808 310.121 396.808C308.069 396.808 308.656 399.313 305.938 399.313C303.806 399.313 302.66 397.741 302.66 395.316C302.66 391.799 304.445 390.76 305.964 390.76C308.762 390.76 308.096 393.051 309.935 393.051C310.921 393.051 311.747 392.492 311.747 391.372C311.747 389.56 309.322 387.722 306.071 387.722C301.301 387.722 298.77 390.84 298.77 395.316ZM325.925 395.769C327.231 395.769 327.631 395.423 327.631 394.09C327.631 390.893 325.073 387.722 320.596 387.722C315.986 387.722 313.242 390.76 313.242 395.289C313.242 398.674 315.293 402.351 320.729 402.351C323.074 402.351 326.831 401.258 326.831 398.913C326.831 398.194 326.165 397.395 325.233 397.395C323.66 397.395 323.66 399.313 320.729 399.313C318.464 399.313 317.132 397.821 317.132 395.769H325.925ZM317.132 393.531C317.558 391.639 318.731 390.44 320.676 390.44C322.408 390.44 323.74 391.746 323.954 393.531H317.132ZM330.357 400.406C330.357 401.685 331.13 402.351 332.302 402.351C333.474 402.351 334.247 401.685 334.247 400.406V384.418C334.247 383.139 333.474 382.473 332.302 382.473C331.13 382.473 330.357 383.139 330.357 384.418V400.406ZM337.773 400.406C337.773 401.685 338.546 402.351 339.718 402.351C340.891 402.351 341.663 401.685 341.663 400.406V384.418C341.663 383.139 340.891 382.473 339.718 382.473C338.546 382.473 337.773 383.139 337.773 384.418V400.406ZM357.074 395.769C358.379 395.769 358.779 395.423 358.779 394.09C358.779 390.893 356.221 387.722 351.744 387.722C347.135 387.722 344.39 390.76 344.39 395.289C344.39 398.674 346.442 402.351 351.878 402.351C354.222 402.351 357.98 401.258 357.98 398.913C357.98 398.194 357.313 397.395 356.381 397.395C354.809 397.395 354.809 399.313 351.878 399.313C349.613 399.313 348.28 397.821 348.28 395.769H357.074ZM348.28 393.531C348.707 391.639 349.879 390.44 351.824 390.44C353.556 390.44 354.889 391.746 355.102 393.531H348.28ZM361.292 400.406C361.292 401.445 361.718 402.351 363.237 402.351C364.756 402.351 365.182 401.445 365.182 400.406V393.984C365.182 392.039 366.781 390.919 368.14 390.919C369.819 390.919 370.592 392.039 370.592 393.611V400.406C370.592 401.445 371.018 402.351 372.537 402.351C374.056 402.351 374.482 401.445 374.482 400.406V392.838C374.482 388.894 371.924 387.722 369.579 387.722C367.367 387.722 365.955 388.734 364.863 390.173H364.809V389.667C364.809 388.495 364.276 387.722 363.051 387.722C361.825 387.722 361.292 388.495 361.292 389.667V400.406ZM376.836 395.316C376.836 399.393 379.101 402.351 383.897 402.351C387.894 402.351 389.812 400.006 389.812 398.301C389.812 397.528 389.173 396.808 388.187 396.808C386.135 396.808 386.721 399.313 384.003 399.313C381.872 399.313 380.726 397.741 380.726 395.316C380.726 391.799 382.511 390.76 384.03 390.76C386.828 390.76 386.162 393.051 388 393.051C388.986 393.051 389.812 392.492 389.812 391.372C389.812 389.56 387.388 387.722 384.137 387.722C379.367 387.722 376.836 390.84 376.836 395.316ZM403.991 395.769C405.297 395.769 405.697 395.423 405.697 394.09C405.697 390.893 403.139 387.722 398.662 387.722C394.052 387.722 391.308 390.76 391.308 395.289C391.308 398.674 393.359 402.351 398.795 402.351C401.14 402.351 404.897 401.258 404.897 398.913C404.897 398.194 404.231 397.395 403.298 397.395C401.726 397.395 401.726 399.313 398.795 399.313C396.53 399.313 395.198 397.821 395.198 395.769H403.991ZM395.198 393.531C395.624 391.639 396.797 390.44 398.742 390.44C400.474 390.44 401.806 391.746 402.019 393.531H395.198Z" fill="url(#paint3_linear_21_437)"/>
<defs>
<filter id="filter0_di_21_437" x="123.238" y="0" width="199.523" height="144.082" filterUnits="userSpaceOnUse" color-interpolation-filters="sRGB">
<feFlood flood-opacity="0" result="BackgroundImageFix"/>
<feColorMatrix in="SourceAlpha" type="matrix" values="0 0 0 0 0 0 0 0 0 0 0 0 0 0 0 0 0 0 127 0" result="hardAlpha"/>
<feOffset dy="5.77063"/>
<feGaussianBlur stdDeviation="2.88531"/>
<feComposite in2="hardAlpha" operator="out"/>
<feColorMatrix type="matrix" values="0 0 0 0 0.00392157 0 0 0 0 0.0745098 0 0 0 0 0.141176 0 0 0 0.25 0"/>
<feBlend mode="normal" in2="BackgroundImageFix" result="effect1_dropShadow_21_437"/>
<feBlend mode="normal" in="SourceGraphic" in2="effect1_dropShadow_21_437" result="shape"/>
<feColorMatrix in="SourceAlpha" type="matrix" values="0 0 0 0 0 0 0 0 0 0 0 0 0 0 0 0 0 0 127 0" result="hardAlpha"/>
<feOffset/>
<feGaussianBlur stdDeviation="4.33139"/>
<feComposite in2="hardAlpha" operator="arithmetic" k2="-1" k3="1"/>
<feColorMatrix type="matrix" values="0 0 0 0 0.0901961 0 0 0 0 0.564706 0 0 0 0 0.752941 0 0 0 1 0"/>
<feBlend mode="normal" in2="shape" result="effect2_innerShadow_21_437"/>
</filter>
<linearGradient id="paint0_linear_21_437" x1="196.578" y1="9.69326e-07" x2="255.052" y2="132.54" gradientUnits="userSpaceOnUse">
<stop stop-color="#01FEFE"/>
<stop offset="1" stop-color="#0C94AA"/>
</linearGradient>
<linearGradient id="paint1_linear_21_437" x1="223" y1="160.02" x2="223" y2="193.211" gradientUnits="userSpaceOnUse">
<stop stop-color="#2DA3AD"/>
<stop offset="1" stop-color="#268BA2"/>
</linearGradient>
<linearGradient id="paint2_linear_21_437" x1="223" y1="279.02" x2="223" y2="345.403" gradientUnits="userSpaceOnUse">
<stop stop-color="#A6E5EB"/>
<stop offset="1" stop-color="#9CD0DC"/>
</linearGradient>
<linearGradient id="paint3_linear_21_437" x1="223" y1="377.004" x2="223" y2="403.387" gradientUnits="userSpaceOnUse">
<stop stop-color="#F2FEFF"/>
<stop offset="1" stop-color="#EDF9FC"/>
</linearGradient>
</defs>
</svg>
