<svg width="378" height="91" viewBox="0 0 378 91" fill="none" xmlns="http://www.w3.org/2000/svg">
<g filter="url(#filter0_di_301_298)">
<mask id="path-1-inside-1_301_298" fill="white">
<path fill-rule="evenodd" clip-rule="evenodd" d="M80.5465 0C103.565 0 122.225 18.66 122.225 41.6783C122.225 64.6967 103.565 83.3567 80.5465 83.3567H45.6783C22.66 83.3567 4 64.6967 4 41.6783C4 18.66 22.66 0 45.6783 0H80.5465ZM80.0724 9.80651C97.6746 9.80651 111.944 24.0759 111.944 41.6782C111.944 59.2804 97.6746 73.5499 80.0723 73.5499H46.1517C28.5495 73.5499 14.2801 59.2804 14.2801 41.6782C14.2801 24.0759 28.5495 9.80651 46.1517 9.80651H80.0724ZM73.1919 23.9709C71.3865 23.9709 69.923 25.4345 69.923 27.2398V56.115C69.923 57.9204 71.3865 59.3839 73.1919 59.3839H78.0945V59.3858H96.0734C97.8788 59.3858 99.3423 57.9222 99.3423 56.1169V55.5721C99.3423 53.7667 97.8788 52.3032 96.0734 52.3032H78.0952V31.0538L96.0734 31.0538C97.8788 31.0538 99.3423 29.5902 99.3423 27.7849V27.2401C99.3423 25.4347 97.8788 23.9712 96.0734 23.9712H78.0952V23.9709H73.1919ZM96.0734 38.6827C97.8788 38.6827 99.3423 40.1462 99.3423 41.9516V42.4964C99.3423 44.3018 97.8788 45.7653 96.0734 45.7653L81.3634 45.7653V38.6827H96.0734ZM26.8823 24.2435C25.0769 24.2435 23.6134 25.707 23.6134 27.5123V29.1468C23.6134 30.9521 25.0769 32.4157 26.8822 32.4157H38.8687L38.8687 55.8434C38.8687 57.6487 40.3322 59.1123 42.1376 59.1123H43.772C45.5774 59.1123 47.0409 57.6487 47.0409 55.8434V32.4157H57.9367C59.7421 32.4157 61.2056 30.9521 61.2056 29.1468V27.5123C61.2056 25.707 59.7421 24.2435 57.9367 24.2435H26.8823Z"/>
</mask>
<path fill-rule="evenodd" clip-rule="evenodd" d="M80.5465 0C103.565 0 122.225 18.66 122.225 41.6783C122.225 64.6967 103.565 83.3567 80.5465 83.3567H45.6783C22.66 83.3567 4 64.6967 4 41.6783C4 18.66 22.66 0 45.6783 0H80.5465ZM80.0724 9.80651C97.6746 9.80651 111.944 24.0759 111.944 41.6782C111.944 59.2804 97.6746 73.5499 80.0723 73.5499H46.1517C28.5495 73.5499 14.2801 59.2804 14.2801 41.6782C14.2801 24.0759 28.5495 9.80651 46.1517 9.80651H80.0724ZM73.1919 23.9709C71.3865 23.9709 69.923 25.4345 69.923 27.2398V56.115C69.923 57.9204 71.3865 59.3839 73.1919 59.3839H78.0945V59.3858H96.0734C97.8788 59.3858 99.3423 57.9222 99.3423 56.1169V55.5721C99.3423 53.7667 97.8788 52.3032 96.0734 52.3032H78.0952V31.0538L96.0734 31.0538C97.8788 31.0538 99.3423 29.5902 99.3423 27.7849V27.2401C99.3423 25.4347 97.8788 23.9712 96.0734 23.9712H78.0952V23.9709H73.1919ZM96.0734 38.6827C97.8788 38.6827 99.3423 40.1462 99.3423 41.9516V42.4964C99.3423 44.3018 97.8788 45.7653 96.0734 45.7653L81.3634 45.7653V38.6827H96.0734ZM26.8823 24.2435C25.0769 24.2435 23.6134 25.707 23.6134 27.5123V29.1468C23.6134 30.9521 25.0769 32.4157 26.8822 32.4157H38.8687L38.8687 55.8434C38.8687 57.6487 40.3322 59.1123 42.1376 59.1123H43.772C45.5774 59.1123 47.0409 57.6487 47.0409 55.8434V32.4157H57.9367C59.7421 32.4157 61.2056 30.9521 61.2056 29.1468V27.5123C61.2056 25.707 59.7421 24.2435 57.9367 24.2435H26.8823Z" fill="url(#paint0_linear_301_298)"/>
<path d="M78.0945 59.3839H78.3669V59.1115H78.0945V59.3839ZM78.0945 59.3858H77.8221V59.6582H78.0945V59.3858ZM78.0952 52.3032H77.8228V52.5756H78.0952V52.3032ZM78.0952 31.0538L78.0952 30.7814L77.8228 30.7814V31.0538H78.0952ZM96.0734 31.0538L96.0734 31.3262H96.0734V31.0538ZM78.0952 23.9712H77.8228V24.2436H78.0952V23.9712ZM78.0952 23.9709H78.3676V23.6985H78.0952V23.9709ZM96.0734 45.7653L96.0734 46.0377H96.0734V45.7653ZM81.3634 45.7653H81.091V46.0377L81.3634 46.0377L81.3634 45.7653ZM81.3634 38.6827V38.4103H81.091V38.6827H81.3634ZM38.8687 32.4157L39.1411 32.4157L39.1411 32.1433H38.8687V32.4157ZM38.8687 55.8434L38.5963 55.8434V55.8434H38.8687ZM47.0409 32.4157V32.1433H46.7685V32.4157H47.0409ZM122.497 41.6783C122.497 18.5096 103.715 -0.272408 80.5465 -0.272408V0.272408C103.414 0.272408 121.952 18.8105 121.952 41.6783H122.497ZM80.5465 83.6291C103.715 83.6291 122.497 64.8471 122.497 41.6783H121.952C121.952 64.5462 103.414 83.0843 80.5465 83.0843V83.6291ZM45.6783 83.6291H80.5465V83.0843H45.6783V83.6291ZM3.72759 41.6783C3.72759 64.8471 22.5096 83.6291 45.6783 83.6291V83.0843C22.8105 83.0843 4.27241 64.5462 4.27241 41.6783H3.72759ZM45.6783 -0.272408C22.5096 -0.272408 3.72759 18.5096 3.72759 41.6783H4.27241C4.27241 18.8105 22.8105 0.272408 45.6783 0.272408V-0.272408ZM80.5465 -0.272408H45.6783V0.272408H80.5465V-0.272408ZM112.216 41.6782C112.216 23.9255 97.8251 9.5341 80.0724 9.5341V10.0789C97.5242 10.0789 111.672 24.2264 111.672 41.6782H112.216ZM80.0723 73.8223C97.825 73.8223 112.216 59.4309 112.216 41.6782H111.672C111.672 59.13 97.5242 73.2775 80.0723 73.2775V73.8223ZM46.1517 73.8223H80.0723V73.2775H46.1517V73.8223ZM14.0076 41.6782C14.0076 59.4309 28.399 73.8223 46.1517 73.8223V73.2775C28.6999 73.2775 14.5525 59.13 14.5525 41.6782H14.0076ZM46.1517 9.5341C28.399 9.5341 14.0076 23.9255 14.0076 41.6782H14.5525C14.5525 24.2264 28.6999 10.0789 46.1517 10.0789V9.5341ZM80.0724 9.5341H46.1517V10.0789H80.0724V9.5341ZM70.1954 27.2398C70.1954 25.5849 71.537 24.2433 73.1919 24.2433V23.6985C71.2361 23.6985 69.6506 25.284 69.6506 27.2398H70.1954ZM70.1954 56.115V27.2398H69.6506V56.115H70.1954ZM73.1919 59.1115C71.537 59.1115 70.1954 57.7699 70.1954 56.115H69.6506C69.6506 58.0708 71.2361 59.6563 73.1919 59.6563V59.1115ZM78.0945 59.1115H73.1919V59.6563H78.0945V59.1115ZM78.3669 59.3858V59.3839H77.8221V59.3858H78.3669ZM96.0734 59.1133H78.0945V59.6582H96.0734V59.1133ZM99.0699 56.1169C99.0699 57.7718 97.7283 59.1133 96.0734 59.1133V59.6582C98.0292 59.6582 99.6147 58.0727 99.6147 56.1169H99.0699ZM99.0699 55.5721V56.1169H99.6147V55.5721H99.0699ZM96.0734 52.5756C97.7283 52.5756 99.0699 53.9171 99.0699 55.5721H99.6147C99.6147 53.6162 98.0292 52.0308 96.0734 52.0308V52.5756ZM78.0952 52.5756H96.0734V52.0308H78.0952V52.5756ZM77.8228 31.0538V52.3032H78.3676V31.0538H77.8228ZM96.0734 30.7814L78.0952 30.7814L78.0952 31.3262L96.0734 31.3262L96.0734 30.7814ZM99.0699 27.7849C99.0699 29.4398 97.7283 30.7814 96.0734 30.7814V31.3262C98.0292 31.3262 99.6147 29.7407 99.6147 27.7849H99.0699ZM99.0699 27.2401V27.7849H99.6147V27.2401H99.0699ZM96.0734 24.2436C97.7283 24.2436 99.0699 25.5852 99.0699 27.2401H99.6147C99.6147 25.2843 98.0292 23.6988 96.0734 23.6988V24.2436ZM78.0952 24.2436H96.0734V23.6988H78.0952V24.2436ZM77.8228 23.9709V23.9712H78.3676V23.9709H77.8228ZM73.1919 24.2433H78.0952V23.6985H73.1919V24.2433ZM99.6147 41.9516C99.6147 39.9958 98.0292 38.4103 96.0734 38.4103V38.9551C97.7283 38.9551 99.0699 40.2967 99.0699 41.9516H99.6147ZM99.6147 42.4964V41.9516H99.0699V42.4964H99.6147ZM96.0734 46.0377C98.0292 46.0377 99.6147 44.4522 99.6147 42.4964H99.0699C99.0699 44.1513 97.7283 45.4929 96.0734 45.4929V46.0377ZM81.3634 46.0377L96.0734 46.0377L96.0734 45.4929L81.3634 45.4929L81.3634 46.0377ZM81.091 38.6827V45.7653H81.6358V38.6827H81.091ZM96.0734 38.4103H81.3634V38.9551H96.0734V38.4103ZM23.8858 27.5123C23.8858 25.8574 25.2273 24.5159 26.8823 24.5159V23.971C24.9264 23.971 23.341 25.5565 23.341 27.5123H23.8858ZM23.8858 29.1468V27.5123H23.341V29.1468H23.8858ZM26.8822 32.1433C25.2273 32.1433 23.8858 30.8017 23.8858 29.1468H23.341C23.341 31.1026 24.9264 32.6881 26.8822 32.6881V32.1433ZM38.8687 32.1433H26.8822V32.6881H38.8687V32.1433ZM39.1411 55.8434L39.1411 32.4157L38.5963 32.4157L38.5963 55.8434L39.1411 55.8434ZM42.1376 58.8399C40.4827 58.8399 39.1411 57.4983 39.1411 55.8434H38.5963C38.5963 57.7992 40.1818 59.3847 42.1376 59.3847V58.8399ZM43.772 58.8399H42.1376V59.3847H43.772V58.8399ZM46.7685 55.8434C46.7685 57.4983 45.4269 58.8399 43.772 58.8399V59.3847C45.7278 59.3847 47.3133 57.7992 47.3133 55.8434H46.7685ZM46.7685 32.4157V55.8434H47.3133V32.4157H46.7685ZM57.9367 32.1433H47.0409V32.6881H57.9367V32.1433ZM60.9332 29.1468C60.9332 30.8017 59.5916 32.1433 57.9367 32.1433V32.6881C59.8925 32.6881 61.478 31.1026 61.478 29.1468H60.9332ZM60.9332 27.5123V29.1468H61.478V27.5123H60.9332ZM57.9367 24.5159C59.5916 24.5159 60.9332 25.8574 60.9332 27.5123H61.478C61.478 25.5565 59.8925 23.971 57.9367 23.971V24.5159ZM26.8823 24.5159H57.9367V23.971H26.8823V24.5159Z" fill="#02191C" mask="url(#path-1-inside-1_301_298)"/>
</g>
<path d="M151.042 51.1206C151.042 52.5819 151.996 53.566 153.488 53.566C154.979 53.566 155.933 52.5819 155.933 51.1206V35.8217H160.555C161.957 35.8217 163.09 35.1059 163.09 33.7639C163.09 32.4219 161.957 31.7062 160.555 31.7062H146.42C145.018 31.7062 143.885 32.4219 143.885 33.7639C143.885 35.1059 145.018 35.8217 146.42 35.8217H151.042V51.1206ZM174.639 46.1999C176.1 46.1999 176.548 45.8122 176.548 44.3211C176.548 40.7424 173.685 37.1935 168.675 37.1935C163.515 37.1935 160.444 40.5933 160.444 45.6631C160.444 49.4505 162.74 53.566 168.824 53.566C171.448 53.566 175.653 52.3433 175.653 49.7189C175.653 48.9137 174.908 48.0191 173.864 48.0191C172.104 48.0191 172.104 50.1663 168.824 50.1663C166.289 50.1663 164.798 48.4962 164.798 46.1999H174.639ZM164.798 43.6948C165.275 41.5774 166.587 40.2354 168.764 40.2354C170.703 40.2354 172.194 41.6967 172.432 43.6948H164.798ZM178.525 45.6929C178.525 50.2557 181.06 53.566 186.428 53.566C190.902 53.566 193.049 50.9417 193.049 49.033C193.049 48.1682 192.333 47.363 191.23 47.363C188.933 47.363 189.589 50.1663 186.547 50.1663C184.162 50.1663 182.879 48.4067 182.879 45.6929C182.879 41.7563 184.877 40.5933 186.577 40.5933C189.709 40.5933 188.963 43.158 191.021 43.158C192.124 43.158 193.049 42.5317 193.049 41.2792C193.049 39.2512 190.335 37.1935 186.697 37.1935C181.358 37.1935 178.525 40.6827 178.525 45.6929ZM195.378 51.389C195.378 52.5521 195.855 53.566 197.555 53.566C199.255 53.566 199.732 52.5521 199.732 51.389V44.2018C199.732 42.0247 201.522 40.7722 203.043 40.7722C204.921 40.7722 205.786 42.0247 205.786 43.7843V51.389C205.786 52.5521 206.263 53.566 207.963 53.566C209.663 53.566 210.14 52.5521 210.14 51.389V42.9194C210.14 38.5057 207.277 37.1935 204.653 37.1935C202.178 37.1935 200.657 38.3566 199.792 39.4898H199.732V33.4955C199.732 32.064 198.867 31.3185 197.555 31.3185C196.243 31.3185 195.378 32.064 195.378 33.4955V51.389ZM223.381 50.3154C223.381 52.4924 224.514 53.1783 226.244 53.1783H237.964C239.396 53.1783 240.44 52.7608 240.44 51.2101C240.44 49.6593 239.396 49.2418 237.964 49.2418H228.272V44.0527H236.563C237.845 44.0527 238.859 43.6948 238.859 42.1738C238.859 40.6529 237.845 40.295 236.563 40.295H228.272V35.6427H237.726C239.157 35.6427 240.201 35.2252 240.201 33.6744C240.201 32.1237 239.157 31.7062 237.726 31.7062H226.244C224.514 31.7062 223.381 32.3921 223.381 34.5691V50.3154ZM248.568 48.1383L251.073 52.1346C251.64 53.0292 252.177 53.566 253.072 53.566C254.473 53.566 255.278 52.5819 255.278 51.5381C255.278 50.9118 255.1 50.554 254.861 50.2259L251.491 45.2157L254.652 40.5336C254.921 40.1459 255.1 39.6986 255.1 39.0723C255.1 38.0882 254.145 37.1935 253.131 37.1935C252.445 37.1935 251.789 37.3724 251.133 38.4759L248.777 42.323L246.332 38.2969C245.825 37.4619 245.258 37.1935 244.572 37.1935C242.992 37.1935 242.246 38.446 242.246 39.3705C242.246 39.788 242.455 40.1757 242.693 40.5038L245.825 45.2157L242.485 50.1365C242.097 50.7031 241.888 51.1504 241.888 51.5381C241.888 52.731 242.962 53.566 244.006 53.566C244.811 53.566 245.407 53.1485 245.705 52.7012L248.568 48.1383ZM256.664 45.6929C256.664 50.2557 259.198 53.566 264.567 53.566C269.04 53.566 271.187 50.9417 271.187 49.033C271.187 48.1682 270.471 47.363 269.368 47.363C267.072 47.363 267.728 50.1663 264.686 50.1663C262.3 50.1663 261.018 48.4067 261.018 45.6929C261.018 41.7563 263.016 40.5933 264.716 40.5933C267.847 40.5933 267.101 43.158 269.159 43.158C270.263 43.158 271.187 42.5317 271.187 41.2792C271.187 39.2512 268.473 37.1935 264.835 37.1935C259.497 37.1935 256.664 40.6827 256.664 45.6929ZM287.056 46.1999C288.517 46.1999 288.965 45.8122 288.965 44.3211C288.965 40.7424 286.102 37.1935 281.091 37.1935C275.932 37.1935 272.86 40.5933 272.86 45.6631C272.86 49.4505 275.157 53.566 281.241 53.566C283.865 53.566 288.07 52.3433 288.07 49.7189C288.07 48.9137 287.324 48.0191 286.281 48.0191C284.521 48.0191 284.521 50.1663 281.241 50.1663C278.706 50.1663 277.215 48.4962 277.215 46.1999H287.056ZM277.215 43.6948C277.692 41.5774 279.004 40.2354 281.181 40.2354C283.119 40.2354 284.611 41.6967 284.849 43.6948H277.215ZM292.016 51.389C292.016 52.8205 292.88 53.566 294.193 53.566C295.505 53.566 296.37 52.8205 296.37 51.389V33.4955C296.37 32.064 295.505 31.3185 294.193 31.3185C292.88 31.3185 292.016 32.064 292.016 33.4955V51.389ZM300.316 51.389C300.316 52.8205 301.181 53.566 302.493 53.566C303.805 53.566 304.67 52.8205 304.67 51.389V33.4955C304.67 32.064 303.805 31.3185 302.493 31.3185C301.181 31.3185 300.316 32.064 300.316 33.4955V51.389ZM321.917 46.1999C323.378 46.1999 323.825 45.8122 323.825 44.3211C323.825 40.7424 320.962 37.1935 315.952 37.1935C310.793 37.1935 307.721 40.5933 307.721 45.6631C307.721 49.4505 310.018 53.566 316.101 53.566C318.726 53.566 322.931 52.3433 322.931 49.7189C322.931 48.9137 322.185 48.0191 321.141 48.0191C319.382 48.0191 319.382 50.1663 316.101 50.1663C313.567 50.1663 312.075 48.4962 312.075 46.1999H321.917ZM312.075 43.6948C312.553 41.5774 313.865 40.2354 316.042 40.2354C317.98 40.2354 319.471 41.6967 319.71 43.6948H312.075ZM326.638 51.389C326.638 52.5521 327.115 53.566 328.815 53.566C330.515 53.566 330.992 52.5521 330.992 51.389V44.2018C330.992 42.0247 332.781 40.7722 334.302 40.7722C336.181 40.7722 337.046 42.0247 337.046 43.7843V51.389C337.046 52.5521 337.523 53.566 339.223 53.566C340.923 53.566 341.4 52.5521 341.4 51.389V42.9194C341.4 38.5057 338.537 37.1935 335.913 37.1935C333.437 37.1935 331.857 38.3267 330.634 39.9372H330.574V39.3705C330.574 38.0583 329.978 37.1935 328.606 37.1935C327.234 37.1935 326.638 38.0583 326.638 39.3705V51.389ZM344.034 45.6929C344.034 50.2557 346.569 53.566 351.937 53.566C356.41 53.566 358.558 50.9417 358.558 49.033C358.558 48.1682 357.842 47.363 356.739 47.363C354.442 47.363 355.098 50.1663 352.056 50.1663C349.671 50.1663 348.388 48.4067 348.388 45.6929C348.388 41.7563 350.386 40.5933 352.086 40.5933C355.218 40.5933 354.472 43.158 356.53 43.158C357.633 43.158 358.558 42.5317 358.558 41.2792C358.558 39.2512 355.844 37.1935 352.206 37.1935C346.867 37.1935 344.034 40.6827 344.034 45.6929ZM374.427 46.1999C375.888 46.1999 376.335 45.8122 376.335 44.3211C376.335 40.7424 373.472 37.1935 368.462 37.1935C363.303 37.1935 360.231 40.5933 360.231 45.6631C360.231 49.4505 362.527 53.566 368.611 53.566C371.236 53.566 375.44 52.3433 375.44 49.7189C375.44 48.9137 374.695 48.0191 373.651 48.0191C371.892 48.0191 371.892 50.1663 368.611 50.1663C366.076 50.1663 364.585 48.4962 364.585 46.1999H374.427ZM364.585 43.6948C365.062 41.5774 366.374 40.2354 368.551 40.2354C370.49 40.2354 371.981 41.6967 372.22 43.6948H364.585Z" fill="url(#paint1_linear_301_298)"/>
<defs>
<filter id="filter0_di_301_298" x="0.370763" y="0" width="125.483" height="90.6152" filterUnits="userSpaceOnUse" color-interpolation-filters="sRGB">
<feFlood flood-opacity="0" result="BackgroundImageFix"/>
<feColorMatrix in="SourceAlpha" type="matrix" values="0 0 0 0 0 0 0 0 0 0 0 0 0 0 0 0 0 0 127 0" result="hardAlpha"/>
<feOffset dy="3.62924"/>
<feGaussianBlur stdDeviation="1.81462"/>
<feComposite in2="hardAlpha" operator="out"/>
<feColorMatrix type="matrix" values="0 0 0 0 0.00392157 0 0 0 0 0.0745098 0 0 0 0 0.141176 0 0 0 0.25 0"/>
<feBlend mode="normal" in2="BackgroundImageFix" result="effect1_dropShadow_301_298"/>
<feBlend mode="normal" in="SourceGraphic" in2="effect1_dropShadow_301_298" result="shape"/>
<feColorMatrix in="SourceAlpha" type="matrix" values="0 0 0 0 0 0 0 0 0 0 0 0 0 0 0 0 0 0 127 0" result="hardAlpha"/>
<feOffset/>
<feGaussianBlur stdDeviation="2.72408"/>
<feComposite in2="hardAlpha" operator="arithmetic" k2="-1" k3="1"/>
<feColorMatrix type="matrix" values="0 0 0 0 0.0901961 0 0 0 0 0.564706 0 0 0 0 0.752941 0 0 0 1 0"/>
<feBlend mode="normal" in2="shape" result="effect2_innerShadow_301_298"/>
</filter>
<linearGradient id="paint0_linear_301_298" x1="46.4956" y1="6.09624e-07" x2="83.2706" y2="83.3567" gradientUnits="userSpaceOnUse">
<stop stop-color="#01FEFE"/>
<stop offset="1" stop-color="#0C94AA"/>
</linearGradient>
<linearGradient id="paint1_linear_301_298" x1="260.527" y1="24.1783" x2="260.527" y2="53.9656" gradientUnits="userSpaceOnUse">
<stop stop-color="#2DA3AD"/>
<stop offset="1" stop-color="#268BA2"/>
</linearGradient>
</defs>
</svg>
