<svg width="126" height="96" viewBox="0 0 126 96" fill="none" xmlns="http://www.w3.org/2000/svg">
<g filter="url(#filter0_di_302_324)">
<mask id="path-1-inside-1_302_324" fill="white">
<path fill-rule="evenodd" clip-rule="evenodd" d="M80.4342 4.82166C103.453 4.82166 122.113 23.4817 122.113 46.5C122.113 69.5183 103.453 88.1783 80.4342 88.1783H45.566C22.5477 88.1783 3.8877 69.5183 3.8877 46.5C3.8877 23.4817 22.5477 4.82166 45.566 4.82166H80.4342ZM79.9601 14.6282C97.5623 14.6282 111.832 28.8976 111.832 46.4998C111.832 64.1021 97.5623 78.3715 79.96 78.3715H46.0394C28.4372 78.3715 14.1678 64.1021 14.1678 46.4998C14.1678 28.8976 28.4372 14.6282 46.0394 14.6282H79.9601ZM73.0796 28.7926C71.2742 28.7926 69.8107 30.2561 69.8107 32.0615V60.9367C69.8107 62.742 71.2742 64.2056 73.0796 64.2056H77.9822V64.2074H95.9611C97.7665 64.2074 99.23 62.7439 99.23 60.9385V60.3937C99.23 58.5883 97.7665 57.1248 95.9611 57.1248H77.9829V35.8754L95.9611 35.8754C97.7665 35.8754 99.23 34.4119 99.23 32.6065V32.0617C99.23 30.2564 97.7665 28.7928 95.9611 28.7928H77.9829V28.7926H73.0796ZM95.9611 43.5044C97.7665 43.5044 99.23 44.9679 99.23 46.7733V47.3181C99.23 49.1234 97.7665 50.587 95.9611 50.587L81.2511 50.587V43.5044H95.9611ZM26.7699 29.0651C24.9646 29.0651 23.5011 30.5286 23.5011 32.334V33.9684C23.5011 35.7738 24.9646 37.2373 26.7699 37.2373H38.7564L38.7564 60.665C38.7564 62.4704 40.2199 63.9339 42.0253 63.9339H43.6597C45.4651 63.9339 46.9286 62.4704 46.9286 60.665V37.2373H57.8244C59.6298 37.2373 61.0933 35.7738 61.0933 33.9684V32.334C61.0933 30.5286 59.6298 29.0651 57.8244 29.0651H26.7699Z"/>
</mask>
<path fill-rule="evenodd" clip-rule="evenodd" d="M80.4342 4.82166C103.453 4.82166 122.113 23.4817 122.113 46.5C122.113 69.5183 103.453 88.1783 80.4342 88.1783H45.566C22.5477 88.1783 3.8877 69.5183 3.8877 46.5C3.8877 23.4817 22.5477 4.82166 45.566 4.82166H80.4342ZM79.9601 14.6282C97.5623 14.6282 111.832 28.8976 111.832 46.4998C111.832 64.1021 97.5623 78.3715 79.96 78.3715H46.0394C28.4372 78.3715 14.1678 64.1021 14.1678 46.4998C14.1678 28.8976 28.4372 14.6282 46.0394 14.6282H79.9601ZM73.0796 28.7926C71.2742 28.7926 69.8107 30.2561 69.8107 32.0615V60.9367C69.8107 62.742 71.2742 64.2056 73.0796 64.2056H77.9822V64.2074H95.9611C97.7665 64.2074 99.23 62.7439 99.23 60.9385V60.3937C99.23 58.5883 97.7665 57.1248 95.9611 57.1248H77.9829V35.8754L95.9611 35.8754C97.7665 35.8754 99.23 34.4119 99.23 32.6065V32.0617C99.23 30.2564 97.7665 28.7928 95.9611 28.7928H77.9829V28.7926H73.0796ZM95.9611 43.5044C97.7665 43.5044 99.23 44.9679 99.23 46.7733V47.3181C99.23 49.1234 97.7665 50.587 95.9611 50.587L81.2511 50.587V43.5044H95.9611ZM26.7699 29.0651C24.9646 29.0651 23.5011 30.5286 23.5011 32.334V33.9684C23.5011 35.7738 24.9646 37.2373 26.7699 37.2373H38.7564L38.7564 60.665C38.7564 62.4704 40.2199 63.9339 42.0253 63.9339H43.6597C45.4651 63.9339 46.9286 62.4704 46.9286 60.665V37.2373H57.8244C59.6298 37.2373 61.0933 35.7738 61.0933 33.9684V32.334C61.0933 30.5286 59.6298 29.0651 57.8244 29.0651H26.7699Z" fill="url(#paint0_linear_302_324)"/>
<path d="M77.9822 64.2056H78.2546V63.9332H77.9822V64.2056ZM77.9822 64.2074H77.7098V64.4798H77.9822V64.2074ZM77.9829 57.1248H77.7105V57.3972H77.9829V57.1248ZM77.9829 35.8754L77.9829 35.603L77.7105 35.603V35.8754H77.9829ZM95.9611 35.8754L95.9611 36.1478H95.9611V35.8754ZM77.9829 28.7928H77.7105V29.0652H77.9829V28.7928ZM77.9829 28.7926H78.2553V28.5202H77.9829V28.7926ZM95.9611 50.587L95.9611 50.8594H95.9611V50.587ZM81.2511 50.587H80.9787V50.8594L81.2511 50.8594L81.2511 50.587ZM81.2511 43.5044V43.232H80.9787V43.5044H81.2511ZM38.7564 37.2373L39.0288 37.2373L39.0288 36.9649H38.7564V37.2373ZM38.7564 60.665L38.484 60.665V60.665H38.7564ZM46.9286 37.2373V36.9649H46.6562V37.2373H46.9286ZM122.385 46.5C122.385 23.3312 103.603 4.54925 80.4342 4.54925V5.09406C103.302 5.09406 121.84 23.6321 121.84 46.5H122.385ZM80.4342 88.4507C103.603 88.4507 122.385 69.6688 122.385 46.5H121.84C121.84 69.3679 103.302 87.9059 80.4342 87.9059V88.4507ZM45.566 88.4507H80.4342V87.9059H45.566V88.4507ZM3.61529 46.5C3.61529 69.6688 22.3973 88.4507 45.566 88.4507V87.9059C22.6982 87.9059 4.1601 69.3679 4.1601 46.5H3.61529ZM45.566 4.54925C22.3973 4.54925 3.61529 23.3312 3.61529 46.5H4.1601C4.1601 23.6321 22.6982 5.09406 45.566 5.09406V4.54925ZM80.4342 4.54925H45.566V5.09406H80.4342V4.54925ZM112.104 46.4998C112.104 28.7471 97.7128 14.3558 79.9601 14.3558V14.9006C97.4119 14.9006 111.559 29.048 111.559 46.4998H112.104ZM79.96 78.6439C97.7127 78.6439 112.104 64.2525 112.104 46.4998H111.559C111.559 63.9516 97.4118 78.0991 79.96 78.0991V78.6439ZM46.0394 78.6439H79.96V78.0991H46.0394V78.6439ZM13.8953 46.4998C13.8953 64.2525 28.2867 78.6439 46.0394 78.6439V78.0991C28.5876 78.0991 14.4402 63.9516 14.4402 46.4998H13.8953ZM46.0394 14.3558C28.2867 14.3558 13.8953 28.7471 13.8953 46.4998H14.4402C14.4402 29.048 28.5876 14.9006 46.0394 14.9006V14.3558ZM79.9601 14.3558H46.0394V14.9006H79.9601V14.3558ZM70.0831 32.0615C70.0831 30.4066 71.4247 29.065 73.0796 29.065V28.5202C71.1238 28.5202 69.5383 30.1057 69.5383 32.0615H70.0831ZM70.0831 60.9367V32.0615H69.5383V60.9367H70.0831ZM73.0796 63.9332C71.4247 63.9332 70.0831 62.5916 70.0831 60.9367H69.5383C69.5383 62.8925 71.1238 64.478 73.0796 64.478V63.9332ZM77.9822 63.9332H73.0796V64.478H77.9822V63.9332ZM78.2546 64.2074V64.2056H77.7098V64.2074H78.2546ZM95.9611 63.935H77.9822V64.4798H95.9611V63.935ZM98.9576 60.9385C98.9576 62.5934 97.616 63.935 95.9611 63.935V64.4798C97.9169 64.4798 99.5024 62.8943 99.5024 60.9385H98.9576ZM98.9576 60.3937V60.9385H99.5024V60.3937H98.9576ZM95.9611 57.3972C97.616 57.3972 98.9576 58.7388 98.9576 60.3937H99.5024C99.5024 58.4379 97.9169 56.8524 95.9611 56.8524V57.3972ZM77.9829 57.3972H95.9611V56.8524H77.9829V57.3972ZM77.7105 35.8754V57.1248H78.2553V35.8754H77.7105ZM95.9611 35.603L77.9829 35.603L77.9829 36.1478L95.9611 36.1478L95.9611 35.603ZM98.9576 32.6065C98.9576 34.2614 97.616 35.603 95.9611 35.603V36.1478C97.9169 36.1478 99.5024 34.5623 99.5024 32.6065H98.9576ZM98.9576 32.0617V32.6065H99.5024V32.0617H98.9576ZM95.9611 29.0652C97.616 29.0652 98.9576 30.4068 98.9576 32.0617H99.5024C99.5024 30.1059 97.9169 28.5204 95.9611 28.5204V29.0652ZM77.9829 29.0652H95.9611V28.5204H77.9829V29.0652ZM77.7105 28.7926V28.7928H78.2553V28.7926H77.7105ZM73.0796 29.065H77.9829V28.5202H73.0796V29.065ZM99.5024 46.7733C99.5024 44.8175 97.9169 43.232 95.9611 43.232V43.7768C97.616 43.7768 98.9576 45.1183 98.9576 46.7733H99.5024ZM99.5024 47.3181V46.7733H98.9576V47.3181H99.5024ZM95.9611 50.8594C97.9169 50.8594 99.5024 49.2739 99.5024 47.3181H98.9576C98.9576 48.973 97.616 50.3146 95.9611 50.3146V50.8594ZM81.2511 50.8594L95.9611 50.8594L95.9611 50.3146L81.2511 50.3146L81.2511 50.8594ZM80.9787 43.5044V50.587H81.5235V43.5044H80.9787ZM95.9611 43.232H81.2511V43.7768H95.9611V43.232ZM23.7735 32.334C23.7735 30.6791 25.115 29.3375 26.7699 29.3375V28.7927C24.8141 28.7927 23.2287 30.3782 23.2287 32.334H23.7735ZM23.7735 33.9684V32.334H23.2287V33.9684H23.7735ZM26.7699 36.9649C25.115 36.9649 23.7735 35.6234 23.7735 33.9684H23.2287C23.2287 35.9242 24.8141 37.5097 26.7699 37.5097V36.9649ZM38.7564 36.9649H26.7699V37.5097H38.7564V36.9649ZM39.0288 60.665L39.0288 37.2373L38.484 37.2373L38.484 60.665L39.0288 60.665ZM42.0253 63.6615C40.3704 63.6615 39.0288 62.32 39.0288 60.665H38.484C38.484 62.6208 40.0695 64.2063 42.0253 64.2063V63.6615ZM43.6597 63.6615H42.0253V64.2063H43.6597V63.6615ZM46.6562 60.665C46.6562 62.32 45.3146 63.6615 43.6597 63.6615V64.2063C45.6155 64.2063 47.201 62.6208 47.201 60.665H46.6562ZM46.6562 37.2373V60.665H47.201V37.2373H46.6562ZM57.8244 36.9649H46.9286V37.5097H57.8244V36.9649ZM60.8209 33.9684C60.8209 35.6234 59.4793 36.9649 57.8244 36.9649V37.5097C59.7802 37.5097 61.3657 35.9242 61.3657 33.9684H60.8209ZM60.8209 32.334V33.9684H61.3657V32.334H60.8209ZM57.8244 29.3375C59.4793 29.3375 60.8209 30.6791 60.8209 32.334H61.3657C61.3657 30.3782 59.7802 28.7927 57.8244 28.7927V29.3375ZM26.7699 29.3375H57.8244V28.7927H26.7699V29.3375Z" fill="#02191C" mask="url(#path-1-inside-1_302_324)"/>
</g>
<defs>
<filter id="filter0_di_302_324" x="0.258459" y="4.82166" width="125.483" height="90.6152" filterUnits="userSpaceOnUse" color-interpolation-filters="sRGB">
<feFlood flood-opacity="0" result="BackgroundImageFix"/>
<feColorMatrix in="SourceAlpha" type="matrix" values="0 0 0 0 0 0 0 0 0 0 0 0 0 0 0 0 0 0 127 0" result="hardAlpha"/>
<feOffset dy="3.62924"/>
<feGaussianBlur stdDeviation="1.81462"/>
<feComposite in2="hardAlpha" operator="out"/>
<feColorMatrix type="matrix" values="0 0 0 0 0.00392157 0 0 0 0 0.0745098 0 0 0 0 0.141176 0 0 0 0.25 0"/>
<feBlend mode="normal" in2="BackgroundImageFix" result="effect1_dropShadow_302_324"/>
<feBlend mode="normal" in="SourceGraphic" in2="effect1_dropShadow_302_324" result="shape"/>
<feColorMatrix in="SourceAlpha" type="matrix" values="0 0 0 0 0 0 0 0 0 0 0 0 0 0 0 0 0 0 127 0" result="hardAlpha"/>
<feOffset/>
<feGaussianBlur stdDeviation="2.72408"/>
<feComposite in2="hardAlpha" operator="arithmetic" k2="-1" k3="1"/>
<feColorMatrix type="matrix" values="0 0 0 0 0.0901961 0 0 0 0 0.564706 0 0 0 0 0.752941 0 0 0 1 0"/>
<feBlend mode="normal" in2="shape" result="effect2_innerShadow_302_324"/>
</filter>
<linearGradient id="paint0_linear_302_324" x1="46.3833" y1="4.82166" x2="83.1583" y2="88.1783" gradientUnits="userSpaceOnUse">
<stop stop-color="#01FEFE"/>
<stop offset="1" stop-color="#0C94AA"/>
</linearGradient>
</defs>
</svg>
